<svg xmlns="http://www.w3.org/2000/svg" viewBox="0 0 300 200">
  <path d="M-1.2.1h302V200h-302V.1z" fill="#C8CEf6"/>
  <path d="M25.9 96.4h3.3v3.2h-3.3v-3.2zm6.5-1.4h3.3v6.2h-3.3V95zm6.7-4.1h3.3v14.5h-3.3V90.9zm6.6-4.1H49v25.7h-3.3V86.8zm99.4-16.4h3.3V129h-3.3V70.4zM72.3 44.7h3.3v110.1h-3.3V44.7zM171.6 58h3.3v83.3h-3.3V58zM98.7 70.7h3.3v57.9h-3.3V70.7zm99.3 14h3.3v29.8H198V84.7zm-86-1.9h3.3v34H112v-34zm99.3-27.9h3.3v89.5h-3.3V54.9zm-92.7 30.8h3.3v27.8h-3.3V85.7zm99.3-21.5h3.3v71h-3.3v-71zm-79.5 21.5h3.3v27.8h-3.3V85.7zm99.4 2.1h3.3v23.6h-3.3V87.8zm-112.6-5h3.3v34h-3.3v-34zm99.4-9.3h3.3v52.4h-3.3V73.5zm19.8 18.4h3.3v15.5h-3.3V91.9zM131.9 78.6h3.3v42.2h-3.3V78.6zm99.3 0h3.3v42.2h-3.3V78.6zm19.9 5.1h3.3v31.9h-3.3V83.7zm6.5 9.3h3.3v13.4h-3.3V93zm13.4 5.1h3.3v3.1H271v-3.1zm-6.7-1h3.3v5.2h-3.3v-5.2zM52.4 75.5h3.3v48.4h-3.3V75.5zm99.3-12.4h3.3v73.1h-3.3V63.1zM85.5 59h3.3v81.3h-3.3V59zm99.3 18.6h3.3v44.3h-3.3V77.6zM65.6 47.8h3.3v103.9h-3.3V47.8zm99.4 5h3.3v93.6H165V52.8zm-86.2 0h3.3v93.6h-3.3V52.8zm99.4 14.5h3.3v64.8h-3.3V67.3zm-72.9 7.2h3.3v50.4h-3.3V74.5zm99.4-1h3.3v52.4h-3.3V73.5zM92.1 64.3h3.3v70.8h-3.3V64.3zm99.4 17.4h3.3v36h-3.3v-36zM58.9 63.1h3.3v73.1h-3.3V63.1zm99.4-7.2h3.3v87.4h-3.3V55.9z" fill="#4A38CF"/>
</svg>
