<svg xmlns="http://www.w3.org/2000/svg" fill="none" viewBox="0 0 149 80">
  <g clip-path="url(#clip0)">
    <path opacity=".25" d="M134.01 78.427l.054-2.05a4.044 4.044 0 01-.054-1.635c0-3.722-.045-7.443-.063-11.173 0-2.023.063-4.081 0-6.104a11.952 11.952 0 01.135-3.541c0-3.11-.021-6.224-.063-9.34h-3.976v2.76h-3.187v6.948h-10.035v-14.93h-2.288V19.074H86.169v35.218h-8.976V33.977H76.07v4.675h-6.014v14.292h-5.053V8.422H44.538V48.19l-6.453 1.797v-14.83h-4.488V18.336H9.443v22.166c0 7.587-.036 15.173-.108 22.76.144 5.663.278 11.326.305 16.998h124.37a16.495 16.495 0 010-1.834z" fill="#C8CEF6"/>
    <path d="M143.615 50.67l2.692-2.697h-1.346l-1.346 1.348v1.349zM140.024 54.265l1.795-1.798h-1.373l-.422.423v1.375zM140.024 56.962L149 47.973h-1.427l-7.549 7.56v1.429zM29.27 32.692L14.361 47.641v1.249l16.157-16.18-1.248-.018zM14.361 53.034v1.276l20.645-20.35v-1.268L14.36 53.034zM31.945 32.692L14.361 50.337v1.258l18.85-18.876-1.266-.027zM26.578 32.692L14.36 44.944v1.25L27.825 32.71l-1.247-.018zM15.86 32.692l-1.499 1.465v1.196l2.693-2.697-1.194.036zM23.876 32.692l-9.515 9.555v1.25L25.132 32.71l-1.256-.018zM21.201 32.692l-6.84 6.859v1.24l8.079-8.09-1.239-.009zM18.526 32.692l-4.165 4.162v1.24l5.386-5.393-1.22-.009zM14.361 69.213v1.277l20.645-20.35v-1.268L14.36 69.213zM14.361 66.463v1.285l20.645-20.287v-1.286L14.36 66.463zM14.361 71.91v1.276l20.645-20.35v-1.267L14.36 71.91zM14.361 61.124V62.4l20.645-20.35v-1.268L14.36 61.124zM14.361 58.373v1.285l20.645-20.287v-1.286L14.36 58.373zM14.361 55.73v1.277l20.645-20.35v-1.268L14.36 55.73zM14.361 63.82v1.277l20.645-20.35v-1.268L14.36 63.82zM14.361 74.553v1.285l20.645-20.287v-1.286L14.36 74.553zM15.68 77.636l19.326-19.37v-1.304L14.36 77.636h1.32zM29.172 77.636l5.834-5.852v-1.34l-7.18 7.192h1.346zM31.918 77.636l3.088-3.092v-1.402l-4.488 4.494h1.4zM26.452 77.636l8.554-8.566v-1.322l-9.873 9.888h1.319zM34.871 77.636l.135-.135v-1.663l-1.795 1.798h1.66zM18.365 77.636l16.641-16.674v-1.304L17.054 77.636h1.31zM23.75 77.636l11.256-11.281v-1.303L22.44 77.636h1.31zM21.058 77.636L35.006 63.65v-1.295L19.747 77.636h1.31z" fill="#C9D5F8"/>
    <path d="M10.206 80.333l16.722-16.746v-1.232L8.976 80.333h1.23zM26.138 80.332l.79-.79v-1.007l-1.795 1.797h1.005zM23.589 80.333l3.339-3.344v-1.15l-4.488 4.494h1.149zM18.257 80.333l8.67-8.684v-1.204l-9.873 9.888h1.203zM15.582 80.333l11.346-11.371v-1.214L14.36 80.333h1.221zM12.898 80.332l14.03-14.058v-1.222l-15.26 15.28h1.23zM20.932 80.333l5.996-5.996v-1.195l-7.18 7.19h1.184zM97.837 67.748l.898-1.797H97.9l-.063.116v1.681zM105.018 58.427v1.231l13.464-13.16v-1.222l-13.464 13.15zM97.837 70.445l3.591-4.494h-1.122l-2.469 3.092v1.402zM105.018 61.124v1.231l13.464-13.16v-1.222l-13.464 13.15zM105.018 55.73v1.232l13.464-13.16V42.58l-13.464 13.15zM105.018 47.64v1.232l13.464-13.16V34.49l-13.464 13.15zM97.837 73.142l6.284-7.191h-1.176l-5.108 5.842v1.349zM105.018 63.82v1.232l13.464-13.16V50.67l-13.464 13.15zM105.018 50.337v1.231l13.464-13.159v-1.222l-13.464 13.15zM105.018 53.034v1.231l13.464-13.16v-1.222l-13.464 13.15zM101.742 80.333l16.74-17.6v-1.277L100.53 80.333h1.212zM107.11 80.333l11.372-12.207V66.85l-12.566 13.483h1.194zM112.459 80.333l6.023-6.787v-1.303l-7.181 8.09h1.158zM104.444 80.333l14.038-14.895v-1.285l-15.259 16.18h1.221zM97.837 77.303v1.277l20.645-21.196v-1.321l-20.645 21.24zM115.08 80.333l3.402-4.09v-1.304l-4.488 5.394h1.086zM105.018 44.872v1.303l13.464-13.977v-1.304l-13.464 13.978zM97.837 80.126v.207h1.033l19.612-20.297V58.76L97.837 80.126zM97.837 74.607v1.267l20.645-21.213v-1.259L97.837 74.607zM116.328 28.198l-11.31 11.353v1.276l12.566-12.584-1.256-.045zM113.626 28.198l-8.608 8.656v1.258l9.874-9.887-1.266-.027zM105.018 42.175v1.304L118.482 29.5v-1.303l-13.464 13.977zM110.942 28.198l-5.924 5.96v1.258l7.181-7.191-1.257-.027zM109.784 80.332l8.698-9.5v-1.286l-9.874 10.786h1.176zM117.584 80.333l.898-1.349v-1.348l-1.795 2.697h.897zM53.855 42.247v1.277l16.157-16.756v-1.267L53.855 42.247zM53.855 34.157v1.277l16.157-16.755V17.41L53.855 34.157zM53.855 39.55v1.277l16.157-16.755v-1.268L53.855 39.551zM53.855 36.8v1.285l16.157-16.692v-1.285L53.855 36.8zM70.012 15.748v.297L53.855 32.692v-1.231l15.35-15.847c.272.021.542.066.807.134zM53.855 58.427v1.214l16.157-15.857V42.58L53.855 58.427zM67.32 15.614L53.855 29.995v-1.23l12.279-13.152h1.184zM64.626 15.614l-10.77 11.685v-1.232l9.604-10.454h1.166zM53.855 50.337v1.276l16.157-16.755v-1.267L53.855 50.337zM53.855 53.034v1.222L70.013 38.4v-1.213L53.855 53.034zM53.855 55.73v1.214l16.157-15.856v-1.205L53.855 55.73zM53.855 44.89v1.285l16.157-16.692v-1.285L53.855 44.89zM62.831 15.614l-8.976 8.988v-1.231l7.684-7.695c.09-.008.18-.008.27 0h1.022v-.063zM53.855 47.64v1.277l16.157-16.755v-1.268L53.855 47.641zM59.241 16.512l-5.386 5.394v-1.142l.279-.279 3.258-3.263a8.074 8.074 0 011.849-.71zM53.855 62.022V63.3l16.157-16.755v-1.268L53.855 62.022zM53.855 74.607v1.276l16.157-16.755v-1.267L53.855 74.607zM56.952 80.333l13.06-13.097v-1.285L55.651 80.333h1.301zM54.897 80.333l15.115-15.785v-1.294l-16.157 16.88v.199h1.042zM53.855 77.303v1.277l16.157-16.755v-1.268L53.855 77.303zM53.855 69.213v1.277l16.157-16.755v-1.268L53.855 69.213zM53.855 66.517v1.276l16.157-16.755v-1.267L53.855 66.517zM59.636 80.333l10.376-10.391v-1.295L58.343 80.333h1.293zM53.855 71.856v1.286L70.013 56.45v-1.286L53.855 71.856zM53.855 63.82v1.277l16.157-16.755v-1.268L53.855 63.82zM62.338 80.333l7.674-7.668v-1.321l-8.976 8.989h1.302zM65.066 80.332l4.946-4.97V74.04l-6.283 6.292h1.337zM67.804 80.333l2.208-2.22v-1.376l-3.59 3.596h1.382zM69.115 15.479l.897-.764v.899a5.839 5.839 0 00-.897-.135z" fill="#C9D5F8"/>
    <path d="M53.344 31.964V24.764h.511v-1.06H17.19v1.105h.556v17.825l-8.76 6.292.305.494h.449v29.394H9.63v1.519l8.078-.045h35.5v-3.353h.593V31.99l-.458-.027z" fill="#fff"/>
    <path d="M53.855 24.602H17.953v.9h35.903v-.9z" fill="#7B98EE"/>
    <path d="M21.542 29.995H18.85v2.697h2.693v-2.697z" fill="#94B4F8"/>
    <path d="M19.747 29.995h-.898v2.697h.898v-2.697z" fill="#7B98EE"/>
    <path d="M21.542 29.995H18.85v.9h2.693v-.9z" fill="#7B98EE"/>
    <path d="M26.03 29.995h-2.693v2.697h2.693v-2.697z" fill="#B6C9FF"/>
    <path d="M29.62 29.995h-2.692v2.697h2.692v-2.697z" fill="#94B4F8"/>
    <path d="M27.825 29.995h-.897v2.697h.897v-2.697z" fill="#7B98EE"/>
    <path d="M34.108 29.995h-2.692v2.697h2.692v-2.697zM37.699 29.995h-2.693v2.697H37.7v-2.697z" fill="#B6C9FF"/>
    <path d="M37.699 29.995h-2.693v.9H37.7v-.9z" fill="#7B98EE"/>
    <path d="M41.29 29.995h-1.796v2.697h1.795v-2.697zM41.29 34.49h-1.796v1.798h1.795V34.49zM41.29 38.984h-1.796v1.798h1.795v-1.798zM41.29 42.58h-1.796v2.697h1.795V42.58z" fill="#94B4F8"/>
    <path d="M41.29 42.58h-1.796v.899h1.795v-.9z" fill="#7B98EE"/>
    <path d="M41.29 47.074h-1.796v2.697h1.795v-2.697z" fill="#B6C9FF"/>
    <path d="M41.29 47.074h-1.796v.9h1.795v-.9z" fill="#7B98EE"/>
    <path d="M41.29 51.569h-1.796v2.696h1.795v-2.697z" fill="#94B4F8"/>
    <path d="M41.29 51.569h-1.796v.898h1.795v-.898z" fill="#7B98EE"/>
    <path d="M41.29 56.063h-1.796v2.697h1.795v-2.697z" fill="#B6C9FF"/>
    <path d="M41.29 56.063h-1.796v.899h1.795v-.9z" fill="#7B98EE"/>
    <path d="M41.29 60.557h-1.796v2.697h1.795v-2.697z" fill="#94B4F8"/>
    <path d="M41.29 60.557h-1.796v.9h1.795v-.9z" fill="#7B98EE"/>
    <path d="M41.29 65.052h-1.796v2.696h1.795v-2.696z" fill="#94B4F8"/>
    <path d="M41.29 69.546h-1.796v1.798h1.795v-1.798z" fill="#B6C9FF"/>
    <path d="M41.29 68.647h-1.796v.9h1.795v-.9z" fill="#7B98EE"/>
    <path d="M41.29 73.142h-1.796v2.696h1.795v-2.696z" fill="#94B4F8"/>
    <path d="M41.29 73.142h-1.796v.898h1.795v-.898z" fill="#7B98EE"/>
    <path d="M37.699 74.04h-2.693v1.798H37.7V74.04z" fill="#94B4F8"/>
    <path d="M35.904 74.04h-.898v1.798h.898V74.04zM37.699 73.142h-2.693v.898H37.7v-.898z" fill="#7B98EE"/>
    <path d="M37.699 69.546h-2.693v1.798H37.7v-1.798z" fill="#B6C9FF"/>
    <path d="M35.904 69.546h-.898v1.798h.898v-1.798z" fill="#7B98EE"/>
    <path d="M37.699 65.052h-2.693v2.696H37.7v-2.696z" fill="#94B4F8"/>
    <path d="M35.904 65.052h-.898v2.696h.898v-2.696z" fill="#7B98EE"/>
    <path d="M37.699 60.557h-2.693v2.697H37.7v-2.697z" fill="#94B4F8"/>
    <path d="M35.904 60.557h-.898v2.697h.898v-2.697z" fill="#7B98EE"/>
    <path d="M37.699 60.557h-2.693v.9H37.7v-.9z" fill="#7B98EE"/>
    <path d="M37.699 56.063h-2.693v2.697H37.7v-2.697z" fill="#B6C9FF"/>
    <path d="M35.904 56.063h-.898v2.697h.898v-2.697z" fill="#7B98EE"/>
    <path d="M37.699 56.063h-2.693v.899H37.7v-.9z" fill="#7B98EE"/>
    <path d="M37.699 51.569h-2.693v2.696H37.7v-2.697z" fill="#94B4F8"/>
    <path d="M35.904 51.569h-.898v2.696h.898v-2.697z" fill="#7B98EE"/>
    <path d="M37.699 51.569h-2.693v.898H37.7v-.898z" fill="#7B98EE"/>
    <path d="M37.699 47.973h-2.693v1.798H37.7v-1.798z" fill="#B6C9FF"/>
    <path d="M35.904 47.973h-.898v1.798h.898v-1.798z" fill="#7B98EE"/>
    <path d="M37.699 47.074h-2.693v.9H37.7v-.9z" fill="#7B98EE"/>
    <path d="M37.699 43.479h-2.693v1.797H37.7V43.48zM37.699 38.984h-2.693v1.798H37.7v-1.798zM37.699 34.49h-2.693v2.697H37.7V34.49zM34.108 34.49h-2.692v1.798h2.692V34.49z" fill="#94B4F8"/>
    <path d="M29.62 34.49h-2.692v1.798h2.692V34.49z" fill="#B6C9FF"/>
    <path d="M27.825 34.49h-.897v1.798h.897V34.49z" fill="#7B98EE"/>
    <path d="M26.03 34.49h-2.693v1.798h2.693V34.49zM21.542 34.49H18.85v2.697h2.693V34.49z" fill="#94B4F8"/>
    <path d="M19.747 34.49h-.898v2.697h.898V34.49z" fill="#7B98EE"/>
    <path d="M21.542 38.984H18.85v1.798h2.693v-1.798z" fill="#94B4F8"/>
    <path d="M19.747 38.984h-.898v1.798h.898v-1.798z" fill="#7B98EE"/>
    <path d="M26.03 38.984h-2.693v1.798h2.693v-1.798z" fill="#94B4F8"/>
    <path d="M29.62 38.984h-2.692v1.798h2.692v-1.798z" fill="#B6C9FF"/>
    <path d="M27.825 38.984h-.897v1.798h.897v-1.798z" fill="#7B98EE"/>
    <path d="M34.108 38.984h-2.692v1.798h2.692v-1.798z" fill="#94B4F8"/>
    <path d="M52.06 72.243h-5.385v2.696h5.385v-2.696zM31.416 74.04H26.03v2.697h5.386V74.04zM31.416 69.546H26.03v2.697h5.386v-2.697zM31.416 65.052H26.03v2.696h5.386v-2.696zM31.416 60.557H26.03v2.697h5.386v-2.697zM31.416 56.063H26.03v2.697h5.386v-2.697zM31.416 51.569H26.03v2.696h5.386v-2.697zM31.416 47.074H29.62v2.697h1.795v-2.697zM24.782 49.77H9.281l-.305-.53 8.778-6.66h15.457v.683l-8.429 6.508z" fill="#B6C9FF"/>
    <path d="M15.259 73.142h-2.693v2.696h2.693v-2.696z" fill="#94B4F8"/>
    <path d="M13.464 73.142h-.898v2.696h.898v-2.696z" fill="#7B98EE"/>
    <path d="M15.259 73.142h-2.693v.898h2.693v-.898z" fill="#7B98EE"/>
    <path d="M22.44 73.142h-2.693v2.696h2.693v-2.696z" fill="#94B4F8"/>
    <path d="M22.44 73.142h-2.693v.898h2.693v-.898z" fill="#7B98EE"/>
    <path d="M15.259 67.748h-2.693v2.697h2.693v-2.697z" fill="#94B4F8"/>
    <path d="M13.464 67.748h-.898v2.697h.898v-2.697z" fill="#7B98EE"/>
    <path d="M15.259 67.748h-2.693v.9h2.693v-.9z" fill="#7B98EE"/>
    <path d="M22.44 67.748h-2.693v2.697h2.693v-2.697z" fill="#94B4F8"/>
    <path d="M22.44 67.748h-2.693v.9h2.693v-.9z" fill="#7B98EE"/>
    <path d="M15.259 63.254h-2.693v1.798h2.693v-1.798z" fill="#94B4F8"/>
    <path d="M13.464 63.254h-.898v1.798h.898v-1.798z" fill="#7B98EE"/>
    <path d="M22.44 63.254h-2.693v1.798h2.693v-1.798zM15.259 57.86h-2.693v1.798h2.693v-1.797z" fill="#94B4F8"/>
    <path d="M13.464 57.86h-.898v1.798h.898v-1.797z" fill="#7B98EE"/>
    <path d="M22.44 57.86h-2.693v1.798h2.693v-1.797zM15.259 52.467h-2.693v1.798h2.693v-1.798z" fill="#94B4F8"/>
    <path d="M13.464 52.467h-.898v1.798h.898v-1.798z" fill="#7B98EE"/>
    <path d="M22.44 52.467h-2.693v1.798h2.693v-1.798z" fill="#94B4F8"/>
    <path d="M9.874 50.058v.612h14.935l8.402-6.625v-.584l-8.33 6.58-15.007.017z" fill="#7B98EE"/>
    <path d="M46.675 74.94H44.88v.898h1.795v-.899z" fill="#94B4F8"/>
    <path d="M31.416 65.052H26.03v.898h5.386v-.898zM31.416 60.557H26.03v.9h5.386v-.9zM31.416 56.063H26.03v.899h5.386v-.9zM31.416 51.569H26.03v.898h5.386v-.898zM31.416 47.074H29.62v.9h1.795v-.9zM52.06 72.243h-.897v2.696h.897v-2.696z" fill="#7B98EE"/>
    <path d="M47.41 74.94l1.958-2.697h-.736l-1.957 2.696h.736zM49.215 74.94l1.948-2.697h-.736l-1.957 2.696h.745zM133.741 28.225H111.301V80.36h36.801v-52l-14.361-.135z" fill="#fff"/>
    <path d="M123.868 31.793h-10.772v1.798h10.772v-1.798zM123.868 35.389h-10.772v1.797h10.772V35.39zM123.868 38.984h-10.772v1.798h10.772v-1.798zM123.868 43.479h-10.772v1.797h10.772V43.48zM123.868 47.074h-10.772v1.798h10.772v-1.798zM123.868 50.67h-10.772v1.797h10.772V50.67zM123.868 55.164h-10.772v1.798h10.772v-1.798zM123.868 58.76h-10.772v1.797h10.772V58.76zM123.868 62.355h-10.772v2.697h10.772v-2.697zM123.868 66.85h-10.772v1.797h10.772V66.85zM123.868 70.445h-10.772v1.798h10.772v-1.798zM123.868 74.04h-10.772v2.697h10.772V74.04z" fill="#94B4F8"/>
    <path d="M146.307 31.793h-10.771v1.798h10.771v-1.798zM146.307 35.389h-10.771v1.797h10.771V35.39zM146.307 38.984h-10.771v1.798h10.771v-1.798zM146.307 43.479h-10.771v1.797h10.771V43.48zM146.307 47.074h-10.771v1.798h10.771v-1.798zM146.307 50.67h-10.771v1.797h10.771V50.67zM146.307 55.164h-10.771v1.798h10.771v-1.798zM146.307 58.76h-10.771v1.797h10.771V58.76zM146.307 62.355h-10.771v2.697h10.771v-2.697zM146.307 66.85h-10.771v1.797h10.771V66.85zM146.307 70.445h-10.771v1.798h10.771v-1.798zM146.307 74.04h-10.771v2.697h10.771V74.04zM128.355 31.793h-1.795v1.798h1.795v-1.798zM128.355 35.389h-1.795v1.797h1.795V35.39zM128.355 38.984h-1.795v1.798h1.795v-1.798zM128.355 43.479h-1.795v1.797h1.795V43.48zM128.355 47.074h-1.795v1.798h1.795v-1.798zM128.355 50.67h-1.795v1.797h1.795V50.67zM128.355 55.164h-1.795v1.798h1.795v-1.798zM128.355 58.76h-1.795v1.797h1.795V58.76zM128.355 62.355h-1.795v2.697h1.795v-2.697zM128.355 66.85h-1.795v1.797h1.795V66.85zM128.355 70.445h-1.795v1.798h1.795v-1.798zM128.355 74.04h-1.795v2.697h1.795V74.04z" fill="#B6C9FF"/>
    <path d="M132.843 70.445h-1.795v1.798h1.795v-1.798zM132.843 74.04h-1.795v2.697h1.795V74.04zM132.843 62.355h-1.795v2.697h1.795v-2.697zM132.843 66.85h-1.795v1.797h1.795V66.85zM132.843 55.164h-1.795v1.798h1.795v-1.798zM132.843 58.76h-1.795v1.797h1.795V58.76zM132.843 47.074h-1.795v1.798h1.795v-1.798zM132.843 50.67h-1.795v1.797h1.795V50.67zM132.843 38.984h-1.795v1.798h1.795v-1.798zM132.843 43.479h-1.795v1.797h1.795V43.48zM132.843 31.793h-1.795v1.798h1.795v-1.798zM132.843 35.389h-1.795v1.797h1.795V35.39z" fill="#94B4F8"/>
    <path d="M123.868 38.984h-10.772v.9h10.772v-.9zM123.868 50.67h-10.772v.899h10.772v-.9zM123.868 58.76h-10.772v.898h10.772v-.898zM123.868 62.355h-10.772v.899h10.772v-.899zM123.868 70.445h-10.772v.899h10.772v-.9zM123.868 74.04h-10.772v.9h10.772v-.9zM146.307 74.04h-.897v2.697h.897V74.04z" fill="#7B98EE"/>
    <path d="M146.307 74.04h-10.771v.9h10.771v-.9zM146.307 70.445h-.897v1.798h.897v-1.798z" fill="#7B98EE"/>
    <path d="M146.307 70.445h-10.771v.899h10.771v-.9zM146.307 66.85h-.897v1.797h.897V66.85zM146.307 62.355h-.897v2.697h.897v-2.697z" fill="#7B98EE"/>
    <path d="M146.307 62.355h-10.771v.899h10.771v-.899zM146.307 58.76h-.897v1.797h.897V58.76z" fill="#7B98EE"/>
    <path d="M146.307 58.76h-10.771v.898h10.771v-.898zM146.307 55.164h-.897v1.798h.897v-1.798zM146.307 50.67h-.897v1.797h.897V50.67z" fill="#7B98EE"/>
    <path d="M146.307 50.67h-10.771v.899h10.771v-.9zM146.307 47.074h-.897v1.798h.897v-1.798zM146.307 43.479h-.897v1.797h.897V43.48zM146.307 38.984h-.897v1.798h.897v-1.798z" fill="#7B98EE"/>
    <path d="M146.307 38.984h-10.771v.9h10.771v-.9zM146.307 35.389h-.897v1.797h.897V35.39zM146.307 31.793h-.897v1.798h.897v-1.798zM128.355 38.984h-1.795v.9h1.795v-.9zM128.355 50.67h-1.795v.899h1.795v-.9zM128.355 62.355h-1.795v.899h1.795v-.899zM128.355 70.445h-1.795v.899h1.795v-.9zM128.355 74.04h-1.795v.9h1.795v-.9zM132.843 74.04h-1.795v.9h1.795v-.9zM132.843 70.445h-1.795v.899h1.795v-.9zM132.843 62.355h-1.795v.899h1.795v-.899zM132.843 50.67h-1.795v.899h1.795v-.9zM132.843 38.984h-1.795v.9h1.795v-.9zM125.663 80.333h-12.567l1.455-.9h11.112v.9z" fill="#7B98EE"/>
    <path d="M54.753 74.94h-8.078v.898h8.078v-.899z" fill="#fff"/>
    <path d="M52.06 65.95h-5.385v2.697h5.385v-2.696z" fill="#B6C9FF"/>
    <path d="M46.675 68.647H44.88v.9h1.795v-.9z" fill="#94B4F8"/>
    <path d="M52.06 65.95h-.897v2.697h.897v-2.696z" fill="#7B98EE"/>
    <path d="M47.41 68.647l1.958-2.696h-.736l-1.957 2.696h.736zM49.215 68.647l1.948-2.696h-.736l-1.957 2.696h.745z" fill="#fff"/>
    <path d="M52.06 65.95h-5.385v.9h5.385v-.9z" fill="#7B98EE"/>
    <path d="M54.753 68.647h-8.078v.9h8.078v-.9z" fill="#fff"/>
    <path d="M52.06 60.557h-5.385v1.798h5.385v-1.798z" fill="#B6C9FF"/>
    <path d="M46.675 62.355H44.88v1.798h1.795v-1.798z" fill="#94B4F8"/>
    <path d="M52.06 60.557h-.897v1.798h.897v-1.798z" fill="#7B98EE"/>
    <path d="M47.41 62.355l1.958-1.798h-.736l-1.957 1.798h.736zM49.215 62.355l1.948-1.798h-.736l-1.957 1.798h.745z" fill="#fff"/>
    <path d="M54.753 62.355h-8.078v1.798h8.078v-1.798z" fill="#fff"/>
    <path d="M52.06 54.265h-5.385v2.697h5.385v-2.697z" fill="#B6C9FF"/>
    <path d="M46.675 56.962H44.88v.899h1.795v-.9z" fill="#94B4F8"/>
    <path d="M52.06 54.265h-.897v2.697h.897v-2.697z" fill="#7B98EE"/>
    <path d="M47.41 56.962l1.958-2.697h-.736l-1.957 2.697h.736zM49.215 56.962l1.948-2.697h-.736l-1.957 2.697h.745z" fill="#fff"/>
    <path d="M54.753 56.962h-8.078v.899h8.078v-.9z" fill="#fff"/>
    <path d="M52.06 47.973h-5.385v2.697h5.385v-2.697z" fill="#B6C9FF"/>
    <path d="M46.675 50.67H44.88v.899h1.795v-.9z" fill="#94B4F8"/>
    <path d="M52.06 47.973h-.897v2.697h.897v-2.697z" fill="#7B98EE"/>
    <path d="M47.41 50.67l1.958-2.697h-.736l-1.957 2.697h.736zM49.215 50.67l1.948-2.697h-.736L48.47 50.67h.745z" fill="#fff"/>
    <path d="M52.06 47.973h-5.385v.899h5.385v-.899z" fill="#7B98EE"/>
    <path d="M54.753 50.67h-8.078v.899h8.078v-.9z" fill="#fff"/>
    <path d="M52.06 42.58h-5.385v1.798h5.385V42.58z" fill="#B6C9FF"/>
    <path d="M46.675 44.378H44.88v1.797h1.795v-1.797z" fill="#94B4F8"/>
    <path d="M52.06 42.58h-.897v1.798h.897V42.58z" fill="#7B98EE"/>
    <path d="M47.41 44.378l1.958-1.798h-.736l-1.957 1.798h.736zM49.215 44.378l1.948-1.798h-.736l-1.957 1.798h.745zM54.753 44.378h-8.078v1.797h8.078v-1.797z" fill="#fff"/>
    <path d="M52.06 36.288h-5.385v2.696h5.385v-2.696z" fill="#B6C9FF"/>
    <path d="M46.675 38.984H44.88v.9h1.795v-.9z" fill="#94B4F8"/>
    <path d="M52.06 36.288h-.897v2.696h.897v-2.696z" fill="#7B98EE"/>
    <path d="M47.41 38.984l1.958-2.696h-.736l-1.957 2.696h.736zM49.215 38.984l1.948-2.696h-.736l-1.957 2.696h.745zM54.753 38.984h-8.078v.9h8.078v-.9z" fill="#fff"/>
    <path d="M52.06 29.995h-5.385v2.697h5.385v-2.697z" fill="#B6C9FF"/>
    <path d="M46.675 32.692H44.88v.899h1.795v-.899z" fill="#94B4F8"/>
    <path d="M52.06 29.995h-.897v2.697h.897v-2.697z" fill="#7B98EE"/>
    <path d="M47.41 32.692l1.958-2.697h-.736l-1.957 2.697h.736zM49.215 32.692l1.948-2.697h-.736l-1.957 2.697h.745z" fill="#fff"/>
    <path d="M52.06 29.995h-5.385v.9h5.385v-.9z" fill="#7B98EE"/>
    <path d="M54.753 32.692h-8.078v.899h8.078v-.899zM105.916 36.782L91.15 20.9v-.117h-2.495V8.09L76.062.485V.333h-5.664v13.15H59.241V80.19h16.731v.144h12.566v-.171h17.378v-43.38z" fill="#fff"/>
    <path d="M67.32 18.31h-5.386v2.697h5.385V18.31zM70.91 18.31h-1.795v2.697h1.795V18.31z" fill="#94B4F8"/>
    <path d="M67.32 18.31H62.83v.899h4.488v-.899z" fill="#7B98EE"/>
    <path d="M62.831 18.31h-.897v2.697h.897V18.31z" fill="#7B98EE"/>
    <path d="M67.32 22.804h-5.386v2.697h5.385v-2.697zM70.91 22.804h-1.795v2.697h1.795v-2.697z" fill="#94B4F8"/>
    <path d="M67.32 22.804H62.83v.9h4.488v-.9z" fill="#7B98EE"/>
    <path d="M62.831 22.804h-.897v2.697h.897v-2.697z" fill="#7B98EE"/>
    <path d="M67.32 27.299h-5.386v1.798h5.385v-1.798zM70.91 27.299h-1.795v1.798h1.795v-1.798z" fill="#94B4F8"/>
    <path d="M67.32 27.299H62.83v.899h4.488v-.9z" fill="#7B98EE"/>
    <path d="M62.831 27.299h-.897v1.798h.897v-1.798z" fill="#7B98EE"/>
    <path d="M67.32 31.793h-5.386v1.798h5.385v-1.798zM70.91 31.793h-1.795v1.798h1.795v-1.798z" fill="#94B4F8"/>
    <path d="M62.831 31.793h-.897v1.798h.897v-1.798z" fill="#7B98EE"/>
    <path d="M67.32 36.288h-5.386v1.797h5.385v-1.797zM70.91 36.288h-1.795v1.797h1.795v-1.797z" fill="#94B4F8"/>
    <path d="M67.32 35.389H62.83v.899h4.488v-.9z" fill="#7B98EE"/>
    <path d="M62.831 35.389h-.897v2.696h.897V35.39z" fill="#7B98EE"/>
    <path d="M67.32 39.883h-5.386v2.697h5.385v-2.697zM70.91 39.883h-1.795v2.697h1.795v-2.697z" fill="#94B4F8"/>
    <path d="M67.32 39.883H62.83v.9h4.488v-.9z" fill="#7B98EE"/>
    <path d="M62.831 39.883h-.897v2.697h.897v-2.697z" fill="#7B98EE"/>
    <path d="M67.32 44.378h-5.386v2.696h5.385v-2.696zM70.91 44.378h-1.795v2.696h1.795v-2.696z" fill="#94B4F8"/>
    <path d="M67.32 44.378H62.83v.898h4.488v-.898z" fill="#7B98EE"/>
    <path d="M62.831 44.378h-.897v2.696h.897v-2.696z" fill="#7B98EE"/>
    <path d="M67.32 48.872h-5.386v1.798h5.385v-1.798zM70.91 48.872h-1.795v1.798h1.795v-1.798z" fill="#94B4F8"/>
    <path d="M67.32 48.872H62.83v.899h4.488v-.9z" fill="#7B98EE"/>
    <path d="M62.831 48.872h-.897v1.798h.897v-1.798z" fill="#7B98EE"/>
    <path d="M67.32 53.366h-5.386v1.798h5.385v-1.798zM70.91 53.366h-1.795v1.798h1.795v-1.798z" fill="#94B4F8"/>
    <path d="M62.831 53.366h-.897v1.798h.897v-1.798z" fill="#7B98EE"/>
    <path d="M67.32 56.962h-5.386v2.696h5.385v-2.696zM70.91 56.962h-1.795v2.696h1.795v-2.696z" fill="#94B4F8"/>
    <path d="M67.32 56.962H62.83v.899h4.488v-.9z" fill="#7B98EE"/>
    <path d="M62.831 56.962h-.897v2.696h.897v-2.696z" fill="#7B98EE"/>
    <path d="M67.32 61.456h-5.386v2.697h5.385v-2.697zM70.91 61.456h-1.795v2.697h1.795v-2.697z" fill="#94B4F8"/>
    <path d="M67.32 61.456H62.83v.899h4.488v-.899z" fill="#7B98EE"/>
    <path d="M62.831 61.456h-.897v2.697h.897v-2.697z" fill="#7B98EE"/>
    <path d="M67.32 65.95h-5.386v2.697h5.385v-2.696zM70.91 65.95h-1.795v2.697h1.795v-2.696z" fill="#94B4F8"/>
    <path d="M67.32 65.95H62.83v.9h4.488v-.9z" fill="#7B98EE"/>
    <path d="M62.831 65.95h-.897v2.697h.897v-2.696z" fill="#7B98EE"/>
    <path d="M67.32 70.445h-5.386v1.798h5.385v-1.798zM70.91 70.445h-1.795v1.798h1.795v-1.798z" fill="#94B4F8"/>
    <path d="M62.831 70.445h-.897v1.798h.897v-1.798z" fill="#7B98EE"/>
    <path d="M89.76 27.299h-8.977v1.798h8.976v-1.798z" fill="#B6C9FF"/>
    <path d="M81.68 27.299h-.897v1.798h.898v-1.798z" fill="#7B98EE"/>
    <path d="M89.76 27.299h-8.977v.899h8.976v-.9z" fill="#7B98EE"/>
    <path d="M89.76 31.793h-8.977v1.798h8.976v-1.798z" fill="#B6C9FF"/>
    <path d="M81.68 31.793h-.897v1.798h.898v-1.798z" fill="#7B98EE"/>
    <path d="M89.76 31.793h-8.977v.9h8.976v-.9z" fill="#7B98EE"/>
    <path d="M89.76 36.288h-8.977v1.797h8.976v-1.797z" fill="#B6C9FF"/>
    <path d="M81.68 36.288h-.897v1.797h.898v-1.797z" fill="#7B98EE"/>
    <path d="M89.76 36.288h-8.977v.899h8.976v-.9z" fill="#7B98EE"/>
    <path d="M89.76 40.782h-8.977v1.798h8.976v-1.798z" fill="#B6C9FF"/>
    <path d="M81.68 40.782h-.897v1.798h.898v-1.798z" fill="#7B98EE"/>
    <path d="M89.76 40.782h-8.977v.899h8.976v-.899z" fill="#7B98EE"/>
    <path d="M89.76 45.276h-8.977v1.798h8.976v-1.798z" fill="#B6C9FF"/>
    <path d="M81.68 45.276h-.897v1.798h.898v-1.798z" fill="#7B98EE"/>
    <path d="M89.76 45.276h-8.977v.9h8.976v-.9z" fill="#7B98EE"/>
    <path d="M89.76 49.77h-8.977v2.697h8.976v-2.696z" fill="#B6C9FF"/>
    <path d="M81.68 49.77h-.897v1.798h.898v-1.797z" fill="#7B98EE"/>
    <path d="M89.76 49.77h-8.977v.9h8.976v-.9z" fill="#7B98EE"/>
    <path d="M89.76 54.265h-8.977v1.798h8.976v-1.798z" fill="#B6C9FF"/>
    <path d="M81.68 54.265h-.897v1.798h.898v-1.798z" fill="#7B98EE"/>
    <path d="M89.76 54.265h-8.977v.899h8.976v-.899z" fill="#7B98EE"/>
    <path d="M89.76 58.76h-8.977v1.797h8.976V58.76z" fill="#B6C9FF"/>
    <path d="M81.68 58.76h-.897v1.797h.898V58.76z" fill="#7B98EE"/>
    <path d="M89.76 58.76h-8.977v.898h8.976v-.898z" fill="#7B98EE"/>
    <path d="M89.76 63.254h-8.977v1.798h8.976v-1.798z" fill="#B6C9FF"/>
    <path d="M81.68 63.254h-.897v1.798h.898v-1.798z" fill="#7B98EE"/>
    <path d="M89.76 67.748h-8.977v1.798h8.976v-1.798z" fill="#B6C9FF"/>
    <path d="M81.68 67.748h-.897v1.798h.898v-1.798z" fill="#7B98EE"/>
    <path d="M89.76 72.243h-8.977v1.797h8.976v-1.797z" fill="#B6C9FF"/>
    <path d="M81.68 72.243h-.897v1.797h.898v-1.797z" fill="#7B98EE"/>
    <path d="M89.76 72.243h-8.977v.899h8.976v-.9z" fill="#7B98EE"/>
    <path d="M96.042 33.591h-1.795v1.798h1.795V33.59z" fill="#B6C9FF"/>
    <path d="M96.042 33.591h-1.795v.899h1.795v-.899z" fill="#7B98EE"/>
    <path d="M96.042 33.591h-.898v1.798h.898V33.59z" fill="#7B98EE"/>
    <path d="M96.042 38.085h-1.795v1.798h1.795v-1.798z" fill="#B6C9FF"/>
    <path d="M96.042 38.085h-.898v1.798h.898v-1.798z" fill="#7B98EE"/>
    <path d="M96.042 41.68h-1.795v2.697h1.795v-2.696z" fill="#B6C9FF"/>
    <path d="M96.042 41.68h-1.795v.9h1.795v-.9z" fill="#7B98EE"/>
    <path d="M96.042 41.68h-.898v2.697h.898v-2.696z" fill="#7B98EE"/>
    <path d="M96.042 46.175h-1.795v2.697h1.795v-2.697z" fill="#B6C9FF"/>
    <path d="M96.042 46.175h-1.795v.9h1.795v-.9z" fill="#7B98EE"/>
    <path d="M96.042 46.175h-.898v2.697h.898v-2.697z" fill="#7B98EE"/>
    <path d="M96.042 50.67h-1.795v1.797h1.795V50.67z" fill="#B6C9FF"/>
    <path d="M96.042 50.67h-1.795v.899h1.795v-.9z" fill="#7B98EE"/>
    <path d="M96.042 50.67h-.898v2.696h.898V50.67z" fill="#7B98EE"/>
    <path d="M96.042 55.164h-1.795v1.798h1.795v-1.798z" fill="#B6C9FF"/>
    <path d="M96.042 55.164h-.898v1.798h.898v-1.798z" fill="#7B98EE"/>
    <path d="M96.042 59.658h-1.795v1.798h1.795v-1.798z" fill="#B6C9FF"/>
    <path d="M96.042 59.658h-.898v1.798h.898v-1.798z" fill="#7B98EE"/>
    <path d="M96.042 63.254h-1.795v2.697h1.795v-2.697z" fill="#B6C9FF"/>
    <path d="M96.042 63.254h-1.795v.899h1.795v-.9z" fill="#7B98EE"/>
    <path d="M96.042 63.254h-.898v2.697h.898v-2.697z" fill="#7B98EE"/>
    <path d="M96.042 67.748h-1.795v2.697h1.795v-2.697zM96.042 72.243h-1.795v1.797h1.795v-1.797z" fill="#B6C9FF"/>
    <path d="M96.042 67.748h-1.795v.9h1.795v-.9z" fill="#7B98EE"/>
    <path d="M96.042 67.748h-.898v2.697h.898v-2.697zM96.042 72.243h-1.795v.899h1.795v-.9z" fill="#7B98EE"/>
    <path d="M96.042 72.243h-.898v1.797h.898v-1.797z" fill="#7B98EE"/>
    <path d="M99.633 72.243h-1.796v1.797h1.796v-1.797z" fill="#B6C9FF"/>
    <path d="M99.633 72.243h-1.796v.899h1.796v-.9z" fill="#7B98EE"/>
    <path d="M103.223 72.243h-1.795v1.797h1.795v-1.797z" fill="#B6C9FF"/>
    <path d="M103.223 72.243h-1.795v.899h1.795v-.9z" fill="#7B98EE"/>
    <path d="M99.633 67.748h-1.796v1.798h1.796v-1.798z" fill="#B6C9FF"/>
    <path d="M99.633 67.748h-1.796v.9h1.796v-.9z" fill="#7B98EE"/>
    <path d="M103.223 67.748h-1.795v1.798h1.795v-1.798z" fill="#B6C9FF"/>
    <path d="M103.223 67.748h-1.795v.9h1.795v-.9z" fill="#7B98EE"/>
    <path d="M99.633 63.254h-1.796v2.697h1.796v-2.697z" fill="#B6C9FF"/>
    <path d="M99.633 63.254h-1.796v.899h1.796v-.9z" fill="#7B98EE"/>
    <path d="M103.223 63.254h-1.795v2.697h1.795v-2.697z" fill="#B6C9FF"/>
    <path d="M103.223 63.254h-1.795v.899h1.795v-.9z" fill="#7B98EE"/>
    <path d="M99.633 58.76h-1.796v2.696h1.796V58.76zM103.223 58.76h-1.795v2.696h1.795V58.76zM99.633 55.164h-1.796v1.798h1.796v-1.798zM103.223 55.164h-1.795v1.798h1.795v-1.798zM99.633 50.67h-1.796v1.797h1.796V50.67z" fill="#B6C9FF"/>
    <path d="M99.633 50.67h-1.796v.899h1.796v-.9z" fill="#7B98EE"/>
    <path d="M103.223 50.67h-1.795v1.797h1.795V50.67z" fill="#B6C9FF"/>
    <path d="M103.223 50.67h-1.795v.899h1.795v-.9z" fill="#7B98EE"/>
    <path d="M99.633 46.175h-1.796v2.697h1.796v-2.697z" fill="#B6C9FF"/>
    <path d="M99.633 46.175h-1.796v.9h1.796v-.9z" fill="#7B98EE"/>
    <path d="M103.223 46.175h-1.795v2.697h1.795v-2.697z" fill="#B6C9FF"/>
    <path d="M103.223 46.175h-1.795v.9h1.795v-.9z" fill="#7B98EE"/>
    <path d="M99.633 41.68h-1.796v2.697h1.796v-2.696zM103.223 41.68h-1.795v2.697h1.795v-2.696zM99.633 38.085h-1.796v1.798h1.796v-1.798z" fill="#B6C9FF"/>
    <path d="M76.295.333H74.5v80h1.795v-80z" fill="#7B98EE"/>
    <path d="M83.323 29.995l1.948-2.696h-.745l-1.948 2.697h.745zM85.37 29.995l2.594-2.696h-.996l-2.594 2.697h.996zM83.323 34.49l1.948-2.697h-.745l-1.948 2.697h.745zM85.37 34.49l2.594-2.697h-.996l-2.594 2.697h.996zM83.323 38.984l1.948-2.696h-.745l-1.948 2.696h.745zM85.37 38.984l2.594-2.696h-.996l-2.594 2.696h.996zM83.323 43.479l1.948-2.697h-.745l-1.948 2.697h.745zM85.37 43.479l2.594-2.697h-.996l-2.594 2.697h.996zM83.323 47.973l1.948-2.697h-.745l-1.948 2.697h.745zM85.37 47.973l2.594-2.697h-.996l-2.594 2.697h.996zM83.323 52.467l1.948-2.696h-.745l-1.948 2.696h.745zM85.37 52.467l2.594-2.696h-.996l-2.594 2.696h.996zM83.323 56.962l1.948-2.697h-.745l-1.948 2.697h.745zM85.37 56.962l2.594-2.697h-.996l-2.594 2.697h.996zM83.323 61.456l1.948-2.697h-.745l-1.948 2.697h.745zM85.37 61.456l2.594-2.697h-.996l-2.594 2.697h.996zM83.323 65.95l1.948-2.696h-.745l-1.948 2.697h.745zM85.37 65.95l2.594-2.696h-.996l-2.594 2.697h.996zM83.323 70.445l1.948-2.697h-.745l-1.948 2.697h.745zM85.37 70.445l2.594-2.697h-.996l-2.594 2.697h.996zM83.323 74.94l1.948-2.697h-.745l-1.948 2.696h.745zM85.37 74.94l2.594-2.697h-.996l-2.594 2.696h.996z" fill="#fff"/>
    <path d="M114.892 80.333a2.319 2.319 0 00-2.164-1.304 2.493 2.493 0 00-1.149.27l-.843-.26a1.22 1.22 0 00-1.113-.675 1.281 1.281 0 00-.727.216l-1.266-.234a2.809 2.809 0 00-2.747-1.86 2.916 2.916 0 00-2.558 1.357h-.206a2.345 2.345 0 00-2.1-1.178 2.392 2.392 0 00-.817.135 3.453 3.453 0 00-2.45-.962 3.219 3.219 0 00-3.187 2.211 2.511 2.511 0 00-2.145.072 2.592 2.592 0 00-1.158-.278 2.179 2.179 0 00-2.298 2.031c.002.149.024.297.063.44h26.865v.019z" fill="#FEEB8E"/>
    <path d="M64.716 74.499a1.309 1.309 0 00-.52.099 2.301 2.301 0 00-2.074-1.456 2.333 2.333 0 00-2.136 1.59 1.525 1.525 0 00-.826-.233 1.893 1.893 0 00-1.71 1.888 1.898 1.898 0 001.71 1.887c.087.005.174.005.26 0a1.663 1.663 0 001.668 1.194 1.66 1.66 0 001.555-1.338c.3-.08.578-.224.817-.422a1.634 1.634 0 001.247.593 1.893 1.893 0 001.71-1.888 1.898 1.898 0 00-1.71-1.887l.01-.027z" fill="#94F0DD"/>
    <path d="M53.685 80.755h-10.6V24.737h10.6v7.838h-.449v-7.407h-9.73v55.138h9.73v-4.612h.449v5.061z" fill="#6E5CFF"/>
    <path d="M43.506 80.53h-.422V25.17H17.871v17.68h-.44V24.737h26.075V80.53z" fill="#6E5CFF"/>
    <path d="M54.143 25.169h-10.69V23.28h10.69v1.888zm-10.233-.45h9.802v-.989H43.91v.99z" fill="#6E5CFF"/>
    <path d="M43.91 25.169H16.866V23.28H43.9v1.888h.01zm-26.595-.45h26.137v-.989H17.315v.99zM41.666 32.468h-2.863v-2.805h2.863v2.805zm-2.423-.45h1.974v-1.942h-1.974v1.942zM41.666 36.791h-2.863V33.96h2.863v2.831zm-2.423-.45h1.974v-1.95h-1.974v1.95zM41.666 41.267h-2.863v-2.849h2.863v2.85zm-2.423-.449h1.974v-1.95h-1.974v1.95zM41.666 45.645h-2.863v-2.84h2.863v2.84zm-2.423-.45h1.974v-1.941h-1.974v1.942zM31.828 50.005h-2.692v-2.84h2.692v2.84zm-2.28-.45h1.796v-1.914h-1.795v1.914zM41.666 50.005h-2.863v-2.84h2.863v2.84zm-2.423-.45h1.974v-1.914h-1.974v1.914zM41.666 54.517h-2.863v-2.84h2.863v2.84zm-2.423-.45h1.974v-1.932h-1.974v1.932zM41.666 58.813h-2.863v-2.849h2.863v2.85zm-2.423-.449h1.974v-1.95h-1.974v1.95zM41.666 63.209h-2.863v-2.85h2.863v2.85zm-2.423-.45h1.974v-1.95h-1.974v1.95zM41.666 67.506h-2.863v-2.85h2.863v2.85zm-2.423-.45h1.974v-1.95h-1.974v1.95zM41.666 71.82h-2.863v-2.84h2.863v2.84zm-2.423-.45h1.974v-1.94h-1.974v1.94zM41.666 76.144h-2.863v-2.832h2.863v2.832zm-2.423-.45h1.974v-1.986h-1.974v1.986zM37.699 32.53h-2.881v-2.867h2.88v2.867zm-2.415-.45h1.966v-1.94h-1.984l.018 1.94zM37.699 36.854h-2.881v-2.85h2.88v2.85zm-2.415-.45h1.966v-1.932h-1.984l.018 1.932zM37.699 41.348h-2.881v-2.867h2.88v2.867zm-2.415-.45h1.966V38.93h-1.984l.018 1.969zM33.776 32.468h-2.863v-2.805h2.863v2.805zm-2.414-.45h1.966v-1.942h-1.966v1.942zM33.776 36.791h-2.863V33.96h2.863v2.831zm-2.414-.45h1.966v-1.95h-1.966v1.95zM33.776 41.267h-2.863v-2.849h2.863v2.85zm-2.414-.449h1.966v-1.95h-1.966v1.95zM29.791 32.53h-2.863v-2.867h2.863v2.867zm-2.415-.45h1.975v-1.94h-1.974v1.94zM29.791 36.854h-2.863v-2.85h2.863v2.85zm-2.415-.45h1.975v-1.932h-1.974v1.932zM29.791 41.348h-2.863v-2.867h2.863v2.867zm-2.415-.45h1.975V38.93h-1.974V40.9zM25.887 32.468h-2.864v-2.805h2.864v2.805zm-2.415-.45h1.975v-1.942h-1.975v1.942zM25.887 36.791h-2.864V33.96h2.864v2.831zm-2.415-.45h1.975v-1.95h-1.975v1.95zM25.887 41.267h-2.864v-2.849h2.864v2.85zm-2.415-.449h1.975v-1.95h-1.975v1.95zM21.91 32.53h-2.863v-2.867h2.863v2.867zm-2.405-.45h1.965v-1.94h-1.965v1.94zM21.91 36.854h-2.863v-2.85h2.863v2.85zm-2.405-.45h1.965v-1.932h-1.965v1.932zM21.91 41.348h-2.863v-2.867h2.863v2.867zm-2.405-.45h1.965V38.93h-1.965V40.9zM37.699 45.708h-2.881v-2.84h2.88v2.84zm-2.415-.45h1.966v-1.941h-1.984l.018 1.941zM37.699 50.067h-2.881v-2.84h2.88v2.84zm-2.415-.45h1.966V47.64h-1.984l.018 1.978zM37.699 54.58h-2.881v-2.84h2.88v2.84zm-2.415-.45h1.966V52.19h-1.984l.018 1.941zM37.699 58.876h-2.881v-2.849h2.88v2.85zm-2.433-.449h1.966v-1.95h-1.966v1.95zM37.699 63.272h-2.881v-2.84h2.88v2.84zm-2.415-.45h1.966v-1.95h-1.984l.018 1.95zM37.699 67.569h-2.881v-2.85h2.88v2.85zm-2.415-.45h1.966v-1.95h-1.984l.018 1.95zM37.699 71.91h-2.881v-2.867h2.88v2.867zm-2.415-.44h1.966v-1.978h-1.984l.018 1.978zM37.699 76.207h-2.881v-2.85h2.88v2.85zm-2.415-.45h1.966v-1.932h-1.984l.018 1.932zM24.854 81.213H9.461V49.438h15.474l-.08 31.775zm-14.98-.476h14.523l.09-30.804H9.873v30.804z" fill="#6E5CFF"/>
    <path d="M24.791 49.906H9.12l-.484-.782 8.976-6.5h15.68v.963l-8.5 6.319zM9.38 49.438h15.259l8.204-6.094v-.279H17.736l-8.49 6.184.134.19zM22.44 77.177h-1.733v-1.671h1.733v1.671zm-1.266-.44H22v-.773h-.826v.773z" fill="#6E5CFF"/>
    <path d="M21.183 77.177h-3.447v-1.671h3.447v1.671zm-3.016-.44h2.558v-.773h-2.558v.773zM15.708 77.177H14.02v-1.671h1.688v1.671zm-1.248-.44h.799v-.773h-.808l.01.773z" fill="#6E5CFF"/>
    <path d="M14.478 77.177h-3.447v-1.671h3.447v1.671zm-3.016-.44h2.559v-.773h-2.559v.773zM46.486 75.973h-1.795V74.31h1.795v1.663zm-1.373-.467h.897v-.773h-.897v.773z" fill="#6E5CFF"/>
    <path d="M54.547 75.973h-8.51V74.31h8.51v1.663zm-8.079-.44h7.62v-.773h-7.62v.772zM22.44 75.937H19.27v-2.831h3.169v2.831zm-2.693-.431h2.262v-1.951h-2.262v1.95zM15.708 75.937h-3.142v-2.831h3.142v2.831zm-2.693-.45h2.244v-1.932h-2.262l.018 1.933zM22.44 71.91h-1.733v-1.672h1.733v1.672zm-1.266-.45H22v-.772h-.826v.773z" fill="#6E5CFF"/>
    <path d="M21.183 71.91h-3.447v-1.672h3.447v1.672zm-3.016-.45h2.558v-.772h-2.558v.773zM15.708 71.91H14.02v-1.672h1.688v1.672zm-1.248-.45h.799v-.772h-.808l.01.773z" fill="#6E5CFF"/>
    <path d="M14.478 71.91h-3.447v-1.672h3.447v1.672zm-3.016-.45h2.559v-.772h-2.559v.773zM22.44 70.66H19.27v-2.84h3.169v2.84zm-2.693-.449h2.262v-1.896h-2.262v1.896z" fill="#6E5CFF"/>
    <path d="M15.708 70.66h-3.142v-2.84h3.142v2.84zm-2.693-.449h2.244v-1.896h-2.262l.018 1.896zM22.44 66.616h-1.733v-1.663h1.733v1.663zm-1.266-.45H22v-.764h-.826v.764z" fill="#6E5CFF"/>
    <path d="M21.183 66.616h-3.447v-1.663h3.447v1.663zm-3.016-.45h2.558v-.764h-2.558v.764zM15.708 66.616H14.02v-1.663h1.688v1.663zm-1.248-.45h.799v-.764h-.808l.01.764z" fill="#6E5CFF"/>
    <path d="M14.478 66.616h-3.447v-1.663h3.447v1.663zm-3.016-.45h2.559v-.764h-2.559v.764zM22.44 65.384H19.27v-2.831h3.169v2.831zm-2.693-.44h2.262v-1.942h-2.262v1.942z" fill="#6E5CFF"/>
    <path d="M15.708 65.384h-3.142v-2.831h3.142v2.831zm-2.693-.44h2.244v-1.942h-2.262l.018 1.942zM22.44 61.348h-1.733v-1.663h1.733v1.663zm-1.266-.45H22v-.763h-.826v.764z" fill="#6E5CFF"/>
    <path d="M21.183 61.348h-3.447v-1.663h3.447v1.663zm-3.016-.45h2.558v-.763h-2.558v.764zM15.708 61.348H14.02v-1.663h1.688v1.663zm-1.248-.45h.799v-.763h-.808l.01.764z" fill="#6E5CFF"/>
    <path d="M14.478 61.348h-3.447v-1.663h3.447v1.663zm-3.016-.45h2.559v-.763h-2.559v.764zM22.44 60.108H19.27v-2.832h3.169v2.832zm-2.693-.45h2.262v-1.932h-2.262v1.932z" fill="#6E5CFF"/>
    <path d="M15.708 60.108h-3.142v-2.832h3.142v2.832zm-2.693-.45h2.244v-1.932h-2.262l.018 1.932zM22.44 56.072h-1.733V54.4h1.733v1.672zm-1.266-.45H22v-.79h-.826v.79z" fill="#6E5CFF"/>
    <path d="M21.183 56.072h-3.447V54.4h3.447v1.672zm-3.016-.45h2.558v-.79h-2.558v.79zM15.708 56.072H14.02V54.4h1.688v1.672zm-1.248-.45h.799v-.79h-.808l.01.79z" fill="#6E5CFF"/>
    <path d="M14.478 56.072h-3.447V54.4h3.447v1.672zm-3.016-.45h2.559v-.79h-2.559v.79zM22.44 54.831H19.27v-2.84h3.169v2.84zm-2.693-.449h2.262V52.44h-2.262v1.942z" fill="#6E5CFF"/>
    <path d="M15.708 54.831h-3.142v-2.84h3.142v2.84zm-2.693-.449h2.244V52.44h-2.262l.018 1.942zM31.82 54.31h-6.122V51.48h6.122v2.831zm-5.682-.45h5.278v-1.932h-5.278v1.933zM31.82 58.876h-6.122v-2.831h6.122v2.831zm-5.682-.45h5.278v-1.932h-5.278v1.933zM31.82 63.443h-6.122V60.61h6.122v2.832zm-5.682-.45h5.278v-1.941h-5.278v1.941zM31.82 68h-6.122v-2.831h6.122V68zm-5.682-.45h5.278v-1.932h-5.278v1.933zM31.82 72.566h-6.122v-2.85h6.122v2.85zm-5.682-.45h5.278v-1.932h-5.278v1.933zM31.82 77.115h-6.122v-2.832h6.122v2.832zm-5.682-.45h5.278v-1.932h-5.278v1.932zM52.23 74.75h-6.202v-2.93h6.203v2.93zm-5.762-.449h5.323V72.27h-5.323V74.3zM46.486 69.987h-1.795v-1.672h1.795v1.672zm-1.373-.441h.897v-.773h-.897v.773z" fill="#6E5CFF"/>
    <path d="M54.547 69.987h-8.51v-1.672h8.51v1.672zm-8.079-.441h7.62v-.773h-7.62v.773z" fill="#6E5CFF"/>
    <path d="M52.23 68.746h-6.202v-2.921h6.203v2.921zm-5.762-.431h5.323v-2.04h-5.323v2.04zM46.486 63.991h-1.795v-1.663h1.795v1.663zm-1.373-.45h.897v-.763h-.897v.764z" fill="#6E5CFF"/>
    <path d="M54.547 63.991h-8.51v-1.663h8.51v1.663zm-8.079-.45h7.62v-.763h-7.62v.764z" fill="#6E5CFF"/>
    <path d="M52.23 62.76h-6.202v-2.922h6.203v2.922zm-5.762-.45h5.323v-2.022h-5.323v2.022zM46.486 58.005h-1.795v-1.663h1.795v1.663zm-1.373-.477h.897v-.764h-.897v.764z" fill="#6E5CFF"/>
    <path d="M54.547 58.005h-8.51v-1.663h8.51v1.663zm-8.079-.45h7.62v-.764h-7.62v.764z" fill="#6E5CFF"/>
    <path d="M52.23 56.773h-6.202v-2.921h6.203v2.921zm-5.762-.45h5.323v-2.022h-5.323v2.023zM46.486 52.018h-1.795v-1.681h1.795v1.68zm-1.373-.45h.897v-.764h-.897v.764z" fill="#6E5CFF"/>
    <path d="M54.547 52.018h-8.51v-1.681h8.51v1.68zm-8.079-.45h7.62v-.764h-7.62v.764z" fill="#6E5CFF"/>
    <path d="M52.23 50.786h-6.202v-2.92h6.203v2.92zm-5.762-.449h5.323v-2.023h-5.323v2.023zM46.486 46.032h-1.795v-1.663h1.795v1.663zm-1.373-.45h.897v-.764h-.897v.764z" fill="#6E5CFF"/>
    <path d="M54.547 46.032h-8.51v-1.663h8.51v1.663zm-8.079-.45h7.62v-.764h-7.62v.764z" fill="#6E5CFF"/>
    <path d="M52.23 44.8h-6.202v-2.921h6.203V44.8zm-5.762-.45h5.323v-2.022h-5.323v2.023zM46.486 40.045h-1.795v-1.663h1.795v1.663zm-1.373-.45h.897v-.764h-.897v.765z" fill="#6E5CFF"/>
    <path d="M54.547 40.045h-8.51v-1.663h8.51v1.663zm-8.079-.45h7.62v-.764h-7.62v.765z" fill="#6E5CFF"/>
    <path d="M52.23 38.813h-6.202v-2.92h6.203v2.92zm-5.762-.449h5.323v-2.022h-5.323v2.022zM46.486 34.058h-1.795V32.36h1.795v1.7zm-1.373-.45h.897v-.763h-.897v.764z" fill="#6E5CFF"/>
    <path d="M54.547 34.058h-8.51V32.36h8.51v1.7zm-8.079-.45h7.62v-.763h-7.62v.764z" fill="#6E5CFF"/>
    <path d="M52.23 32.827h-6.202v-2.921h6.203v2.921zm-5.762-.467h5.323v-2.005h-5.323v2.005zM125.851 80.755h-14.756v-.45h14.307V28.172h-14.101V79.1h-.44V27.703h14.972l.018 53.052z" fill="#6E5CFF"/>
    <path d="M129.908 80.755h-4.488V27.721h4.488v53.034zm-4.066-.45h3.591V28.172h-3.591v52.135zM148.533 80.755h-15.025V27.721l15.025.153v52.881zm-14.595-.45h14.164v-51.99l-14.137-.135-.027 52.126z" fill="#6E5CFF"/>
    <path d="M133.956 80.755h-4.487V27.721h4.487v53.034zm-4.057-.45h3.591V28.172h-3.591v52.135zM124.092 33.52h-11.247v-2.356h11.247v2.355zm-10.771-.45h10.349v-1.457h-10.385l.036 1.457zM128.688 33.52h-2.199v-2.356h2.199v2.355zm-1.796-.45h1.311v-1.457h-1.311v1.457zM124.092 37.43h-11.247v-2.374h11.247v2.373zm-10.771-.45h10.349v-1.456h-10.385l.036 1.456zM128.688 37.43h-2.199v-2.374h2.199v2.373zm-1.796-.45h1.311v-1.456h-1.311v1.456zM124.092 41.348h-11.247v-2.355h11.247v2.355zm-10.771-.45h10.349v-1.455h-10.385l.036 1.456zM128.688 41.348h-2.199v-2.355h2.199v2.355zm-1.796-.45h1.311v-1.455h-1.311v1.456zM124.092 45.267h-11.247v-2.364h11.247v2.364zm-10.771-.45h10.349v-1.464h-10.385l.036 1.465zM128.688 45.267h-2.199v-2.364h2.199v2.364zm-1.796-.45h1.311v-1.464h-1.311v1.465zM124.092 49.187h-11.247v-2.364h11.247v2.364zm-10.771-.45h10.349v-1.465h-10.385l.036 1.465zM128.688 49.187h-2.199v-2.364h2.199v2.364zm-1.796-.45h1.311v-1.465h-1.311v1.465zM124.092 53.097h-11.247v-2.364h11.247v2.364zm-10.771-.45h10.349v-1.465h-10.385l.036 1.465zM128.688 53.097h-2.199v-2.364h2.199v2.364zm-1.796-.45h1.311v-1.465h-1.311v1.465zM124.092 57.016h-11.247V54.66h11.247v2.355zm-10.771-.45h10.349V55.11h-10.385l.036 1.456zM128.688 57.016h-2.199V54.66h2.199v2.355zm-1.796-.45h1.311V55.11h-1.311v1.456zM124.092 60.926h-11.247V58.57h11.247v2.355zm-10.771-.45h10.349V59.02h-10.385l.036 1.456zM128.688 60.926h-2.199V58.57h2.199v2.355zm-1.796-.45h1.311V59.02h-1.311v1.456zM124.092 64.854h-11.247V62.49h11.247v2.364zm-10.771-.45h10.349v-1.483h-10.385l.036 1.483zM128.688 64.854h-2.199V62.49h2.199v2.364zm-1.796-.45h1.311v-1.483h-1.311v1.483zM124.092 68.764h-11.247V66.4h11.247v2.364zm-10.771-.45h10.349V66.85h-10.385l.036 1.465zM128.688 68.764h-2.199V66.4h2.199v2.364zm-1.796-.45h1.311V66.85h-1.311v1.465zM124.092 72.683h-11.247v-2.355h11.247v2.355zm-10.771-.45h10.349V70.77h-10.385l.036 1.465zM128.688 72.683h-2.199v-2.355h2.199v2.355zm-1.796-.45h1.311V70.77h-1.311v1.465zM124.092 76.593h-11.247V74.23h11.247v2.364zm-10.771-.45h10.349V74.68h-10.385l.036 1.465zM128.688 76.593h-2.199V74.23h2.199v2.364zm-1.796-.45h1.311V74.68h-1.311v1.465zM146.424 33.52h-11.247v-2.356h11.247v2.355zm-10.771-.45h10.358v-1.457h-10.394l.036 1.457z" fill="#6E5CFF"/>
    <path d="M132.781 33.52h-2.199v-2.356h2.199v2.355zm-1.796-.45h1.311v-1.457h-1.248l-.063 1.457zM146.424 37.43h-11.247v-2.374h11.247v2.373zm-10.771-.45h10.358v-1.456h-10.394l.036 1.456zM132.781 37.43h-2.199v-2.374h2.199v2.373zm-1.796-.45h1.311v-1.456h-1.248l-.063 1.456zM146.424 41.348h-11.247v-2.355h11.247v2.355zm-10.771-.45h10.358v-1.455h-10.394l.036 1.456zM132.781 41.348h-2.199v-2.355h2.199v2.355zm-1.796-.45h1.311v-1.455h-1.248l-.063 1.456zM146.424 45.267h-11.247v-2.364h11.247v2.364zm-10.771-.45h10.358v-1.464h-10.394l.036 1.465zM132.781 45.267h-2.199v-2.364h2.199v2.364zm-1.796-.45h1.311v-1.464h-1.248l-.063 1.465zM146.424 49.187h-11.247v-2.364h11.247v2.364zm-10.771-.45h10.358v-1.465h-10.394l.036 1.465zM132.781 49.187h-2.199v-2.364h2.199v2.364zm-1.796-.45h1.311v-1.465h-1.248l-.063 1.465zM146.424 53.097h-11.247v-2.364h11.247v2.364zm-10.771-.45h10.358v-1.465h-10.394l.036 1.465zM132.781 53.097h-2.199v-2.364h2.199v2.364zm-1.796-.45h1.311v-1.465h-1.248l-.063 1.465zM146.424 57.016h-11.247V54.66h11.247v2.355zm-10.771-.45h10.358V55.11h-10.394l.036 1.456zM132.781 57.016h-2.199V54.66h2.199v2.355zm-1.796-.45h1.311V55.11h-1.248l-.063 1.456zM146.424 60.926h-11.247V58.57h11.247v2.355zm-10.771-.45h10.358V59.02h-10.394l.036 1.456zM132.781 60.926h-2.199V58.57h2.199v2.355zm-1.796-.45h1.311V59.02h-1.248l-.063 1.456zM146.424 64.854h-11.247V62.49h11.247v2.364zm-10.771-.45h10.358v-1.483h-10.394l.036 1.483zM132.781 64.854h-2.199V62.49h2.199v2.364zm-1.796-.45h1.311v-1.483h-1.248l-.063 1.483zM146.424 68.764h-11.247V66.4h11.247v2.364zm-10.771-.45h10.358V66.85h-10.394l.036 1.465zM132.781 68.764h-2.199V66.4h2.199v2.364zm-1.796-.45h1.311V66.85h-1.248l-.063 1.465zM146.424 72.683h-11.247v-2.355h11.247v2.355zm-10.771-.45h10.358V70.77h-10.394l.036 1.465zM132.781 72.683h-2.199v-2.355h2.199v2.355zm-1.796-.45h1.311V70.77h-1.248l-.063 1.465zM146.424 76.593h-11.247V74.23h11.247v2.364zm-10.771-.45h10.358V74.68h-10.394l.036 1.465zM132.781 76.593h-2.199V74.23h2.199v2.364zm-1.796-.45h1.311V74.68h-1.248l-.063 1.465zM125.842 80.755h-14.738v-.45h14.289v-.97h-12.036v-.45h12.485v1.87z" fill="#6E5CFF"/>
    <path d="M129.908 80.755h-4.488v-1.87h4.488v1.87zm-4.066-.45h3.591v-.97h-3.591v.97zM148.542 80.755h-15.061v-1.87h15.061v1.87zm-14.63-.45h14.19v-.97h-14.19v.97z" fill="#6E5CFF"/>
    <path d="M133.956 80.755h-4.487v-1.87h4.487v1.87zm-4.075-.45h3.591v-.97h-3.591v.97zM70.829 80.755H59.24v-2.697h.449v2.212h10.77V13.636H59.69v60.88h-.449v-61.33h11.588v67.57z" fill="#6E5CFF"/>
    <path d="M70.39 80.755V0h5.905l12.737 7.91v12.854h-.449V8.18L76.197.45H70.81v79.856h17.952v.45H70.389z" fill="#6E5CFF"/>
    <path d="M78.988 80.485h-.449v-59.91h12.925l14.9 16.18v39.847h-.448V36.971L91.258 21.025h-12.27v59.46z" fill="#6E5CFF"/>
    <path d="M96.15 35.955h-2.486v-2.697h2.486v2.697zm-2.038-.45h1.59v-1.797h-1.59v1.798zM96.15 40.252h-2.486v-2.697h2.486v2.697zm-2.038-.45h1.59v-1.797h-1.59v1.797zM96.15 44.548h-2.486v-2.696h2.486v2.696zm-2.038-.45h1.59v-1.797h-1.59V44.1zM96.15 48.827h-2.486V46.13h2.486v2.697zm-2.038-.45h1.59V46.58h-1.59v1.798zM96.15 53.124h-2.486v-2.697h2.486v2.697zm-2.038-.45h1.59v-1.798h-1.59v1.798zM96.15 57.411h-2.486v-2.696h2.486v2.696zm-2.038-.44h1.59v-1.798h-1.59v1.798zM96.15 61.699h-2.486v-2.697h2.486V61.7zm-2.038-.45h1.59v-1.797h-1.59v1.797zM96.15 65.996h-2.486v-2.697h2.486v2.697zm-2.038-.45h1.59V63.82h-1.59v1.726zM96.15 70.274h-2.486v-2.697h2.486v2.697zm-2.038-.45h1.59v-1.797h-1.59v1.798zM96.15 74.607h-2.486V71.91h2.486v2.697zm-2.038-.45h1.59V72.36h-1.59v1.797zM99.938 40.252H97.46v-2.697h2.478v2.697zm-2.038-.45h1.589v-1.797H97.9v1.797zM99.938 44.548H97.46v-2.696h2.478v2.696zm-2.038-.45h1.589v-1.797H97.9V44.1zM99.938 48.827H97.46V46.13h2.478v2.697zm-2.038-.45h1.589V46.58H97.9v1.798zM99.938 53.124H97.46v-2.697h2.478v2.697zm-2.038-.45h1.589v-1.798H97.9v1.798zM99.938 57.411H97.46v-2.696h2.478v2.696zm-2.038-.44h1.589v-1.798H97.9v1.798zM99.938 61.699H97.46v-2.697h2.478V61.7zm-2.038-.45h1.589v-1.797H97.9v1.797zM99.938 65.996H97.46v-2.697h2.478v2.697zm-2.038-.45h1.589V63.82H97.9v1.726zM99.938 70.274H97.46v-2.697h2.478v2.697zm-2.038-.45h1.589v-1.797H97.9v1.798zM99.938 74.607H97.46V71.91h2.478v2.697zm-2.038-.45h1.589V72.36H97.9v1.797zM103.726 44.548h-2.478v-2.696h2.478v2.696zm-2.029-.45h1.589v-1.797h-1.589V44.1zM103.726 48.827h-2.478V46.13h2.478v2.697zm-2.029-.45h1.589V46.58h-1.589v1.798zM103.726 53.124h-2.478v-2.697h2.478v2.697zm-2.029-.45h1.589v-1.798h-1.589v1.798zM103.726 57.411h-2.478v-2.696h2.478v2.696zm-2.029-.44h1.589v-1.798h-1.589v1.798zM103.726 61.699h-2.478v-2.697h2.478V61.7zm-2.029-.45h1.589v-1.797h-1.589v1.797zM103.726 65.996h-2.478v-2.697h2.478v2.697zm-2.029-.45h1.589V63.82h-1.589v1.726zM103.726 70.274h-2.478v-2.697h2.478v2.697zm-2.029-.45h1.589v-1.797h-1.589v1.798zM103.726 74.607h-2.478V71.91h2.478v2.697zm-2.029-.45h1.589V72.36h-1.589v1.797zM89.606 29.663h-9.092v-2.697h9.093v2.697zm-8.652-.45h8.213v-1.797h-8.213v1.797zM89.606 34.157h-9.092v-2.696h9.093v2.696zm-8.652-.45h8.213V31.91h-8.213v1.798zM89.606 38.652h-9.092v-2.697h9.093v2.697zm-8.652-.45h8.213v-1.797h-8.213v1.797zM89.606 43.146h-9.092V40.45h9.093v2.697zm-8.652-.45h8.213V40.9h-8.213v1.798zM89.606 47.64h-9.092v-2.696h9.093v2.697zm-8.652-.449h8.213v-1.798h-8.213v1.798zM89.606 52.135h-9.092v-2.697h9.093v2.697zm-8.652-.45h8.213v-1.797h-8.213v1.797zM89.606 56.63h-9.092v-2.697h9.093v2.696zm-8.652-.441h8.213V54.39h-8.213v1.798zM89.606 61.124h-9.092v-2.697h9.093v2.697zm-8.652-.45h8.213v-1.798h-8.213v1.798zM89.606 65.618h-9.092v-2.697h9.093v2.697zm-8.652-.45h8.213v-1.797h-8.213v1.798zM89.606 70.112h-9.092v-2.696h9.093v2.696zm-8.652-.449h8.213v-1.798h-8.213v1.798zM89.606 74.607h-9.092V71.91h9.093v2.697zm-8.652-.45h8.213V72.36h-8.213v1.797zM67.266 21.025h-5.189v-2.697h5.189v2.697zm-4.758-.45h4.3v-1.797h-4.3v1.797zM70.721 21.025h-1.948v-2.697h1.948v2.697zm-1.508-.45h1.06v-1.797h-1.06v1.797zM67.266 25.33h-5.189V22.68h5.189v2.651zm-4.758-.449h4.3v-1.798h-4.3v1.798zM70.721 25.33h-1.948V22.68h1.948v2.651zm-1.508-.449h1.06v-1.798h-1.06v1.798zM67.266 29.663h-5.189v-2.697h5.189v2.697zm-4.758-.45h4.3v-1.797h-4.3v1.797zM70.721 29.663h-1.948v-2.697h1.948v2.697zm-1.508-.45h1.06v-1.797h-1.06v1.797zM67.266 33.96h-5.189v-2.697h5.189v2.697zm-4.758-.45h4.3v-1.798h-4.3v1.798zM70.721 33.96h-1.948v-2.697h1.948v2.697zm-1.508-.45h1.06v-1.798h-1.06v1.798zM67.266 38.265h-5.189V35.57h5.189v2.696zm-4.758-.45h4.3v-1.797h-4.3v1.798zM70.721 38.265h-1.948V35.57h1.948v2.696zm-1.508-.45h1.06v-1.797h-1.06v1.798zM67.266 42.57h-5.189v-2.696h5.189v2.697zm-4.758-.449h4.3v-1.797h-4.3v1.797zM70.721 42.57h-1.948v-2.696h1.948v2.697zm-1.508-.449h1.06v-1.797h-1.06v1.797zM67.266 46.876h-5.189V44.18h5.189v2.696zm-4.758-.449h4.3v-1.798h-4.3v1.798zM70.721 46.876h-1.948V44.18h1.948v2.696zm-1.508-.449h1.06v-1.798h-1.06v1.798zM67.266 51.182h-5.189v-2.643h5.189v2.643zm-4.758-.45h4.3v-1.797h-4.3v1.798zM70.721 51.182h-1.948v-2.643h1.948v2.643zm-1.508-.45h1.06v-1.797h-1.06v1.798zM67.266 55.506h-5.189v-2.697h5.189v2.697zm-4.758-.45h4.3v-1.798h-4.3v1.798zM70.721 55.506h-1.948v-2.697h1.948v2.697zm-1.508-.45h1.06v-1.798h-1.06v1.798zM67.266 59.811h-5.189v-2.696h5.189v2.696zm-4.758-.45h4.3v-1.797h-4.3v1.798zM70.721 59.811h-1.948v-2.696h1.948v2.696zm-1.508-.485h1.06v-1.798h-1.06v1.798zM67.266 64.117h-5.189V61.42h5.189v2.697zm-4.758-.45h4.3V61.87h-4.3v1.797zM70.721 64.117h-1.948V61.42h1.948v2.697zm-1.508-.45h1.06V61.87h-1.06v1.797zM67.266 68.422h-5.189v-2.696h5.189v2.697zm-4.758-.44h4.3v-1.798h-4.3v1.798zM70.721 68.422h-1.948v-2.696h1.948v2.697zm-1.508-.44h1.06v-1.798h-1.06v1.798zM67.266 72.737h-5.189v-2.625h5.189v2.625zm-4.758-.45h4.3V70.49h-4.3v1.798zM70.721 72.737h-1.948v-2.625h1.948v2.625zm-1.508-.45h1.06V70.49h-1.06v1.798zM76.484.216h-.45v80.45h.45V.215zM91.555 20.791h-.45v57.196h.45V20.79zM53.685 33.807h-.449v4.79h.45v-4.79zM53.685 39.775h-.449v4.845h.45v-4.845zM53.685 45.843h-.449v4.692h.45v-4.692zM53.685 51.83h-.449v4.727h.45V51.83zM53.685 57.762h-.449v4.755h.45v-4.755zM53.685 63.685h-.449v4.818h.45v-4.818zM53.685 69.708h-.449v4.899h.45v-4.9zM61.037 79.011h-.45v1.735h.45v-1.735z" fill="#6E5CFF"/>
    <path d="M60.964 79.245a1.92 1.92 0 01-1.723-1.043h-.126a1.954 1.954 0 01-1.919-1.462 1.963 1.963 0 01.955-2.217 1.954 1.954 0 011.673-.096 2.508 2.508 0 012.186-1.379 2.502 2.502 0 012.24 1.289c.137-.013.275-.013.412 0a1.965 1.965 0 011.575 1.947 1.97 1.97 0 01-1.61 1.918 1.928 1.928 0 01-1.275-.476 2.315 2.315 0 01-.628.278 1.897 1.897 0 01-1.76 1.24zm-1.463-1.564l.063.17a1.492 1.492 0 001.446.94 1.489 1.489 0 001.364-1.056v-.117h.125c.267-.062.517-.178.736-.342l.153-.117.144.135a1.436 1.436 0 001.086.477 1.507 1.507 0 001.508-1.51 1.511 1.511 0 00-1.508-1.51c-.156.001-.31.026-.458.071l-.198.063-.09-.18a2.084 2.084 0 00-1.866-1.204 2.043 2.043 0 00-1.867 1.294l-.09.234-.216-.117a1.507 1.507 0 00-2.172 1.65 1.51 1.51 0 001.463 1.2c.075.008.15.008.225 0l.152-.081z" fill="#6E5CFF"/>
    <path d="M63.73 77.591h-.45v3.182h.45v-3.182zM62.159 78.67h-.45v2.103h.45V78.67z" fill="#6E5CFF"/>
    <path d="M64.133 78.66l-.799.8.314.324.799-.809-.314-.314zM115.116 80.71H88.188l-.045-.18a3.107 3.107 0 01-.062-.557 2.51 2.51 0 012.576-2.508 2.34 2.34 0 011.13.279 2.521 2.521 0 011.975-.126 3.426 3.426 0 012.475-2.332 3.414 3.414 0 013.26.957 2.522 2.522 0 012.917 1.168 2.96 2.96 0 012.577-1.474 3.021 3.021 0 012.881 2.13c.342.063.683.144 1.015.216a1.362 1.362 0 011.506-.015c.222.142.4.343.513.581l.656.234a2.327 2.327 0 011.157-.287 2.513 2.513 0 012.325 1.617l.072.297zm-26.524-.45h25.851a2.078 2.078 0 00-1.795-1.024 2.093 2.093 0 00-1.033.279l-.089.053h-.099l-.817-.278h-.099l-.018-.189a.897.897 0 00-.897-.611.826.826 0 00-.575.207l-.089.063h-.108l-1.23-.27h-.143v-.135a2.57 2.57 0 00-2.487-1.95 2.535 2.535 0 00-2.289 1.429l-.062.126h-.485l-.063-.126a2.07 2.07 0 00-1.858-1.205c-.25.003-.496.052-.727.144h-.144l-.098-.108a2.98 2.98 0 00-5.153 1.313l-.062.27-.252-.109a1.938 1.938 0 00-.897-.206 2.08 2.08 0 00-1.023.278l-.117.063-.117-.063a2.043 2.043 0 00-2.928.999c-.102.25-.153.52-.15.79.022.086.04.173.053.26z" fill="#6E5CFF"/>
    <path d="M2.208 64.656c.098-.883.519-1.7 1.182-2.29a3.588 3.588 0 012.408-.91 3.588 3.588 0 013.59 3.191 3.483 3.483 0 012.28 3.218 3.598 3.598 0 01-1.091 2.467 3.588 3.588 0 01-2.499 1.012 3.587 3.587 0 01-2.217-.746 3.722 3.722 0 01-2.27.746 3.588 3.588 0 01-2.499-1.012A3.598 3.598 0 010 67.865a3.464 3.464 0 012.208-3.209z" fill="#94F0DD"/>
    <path d="M6.571 69.375h-.44v11.101h.44v-11.1z" fill="#6E5CFF"/>
    <path d="M4.048 69.897l-.332.296 2.477 2.868.342-.252-2.487-2.912zM7.594 73.186L6.202 74.41l.297.342 1.39-1.223-.295-.342z" fill="#6E5CFF"/>
    <path d="M8.554 71.91h-.161a3.704 3.704 0 01-2.047-.71 3.775 3.775 0 01-2.208.71 3.838 3.838 0 01-3.73-3.027 3.852 3.852 0 012.133-4.308 3.85 3.85 0 011.235-2.45 3.839 3.839 0 012.552-1.001 3.748 3.748 0 012.307.782 3.79 3.79 0 011.472 2.597 3.853 3.853 0 012.267 4.344 3.857 3.857 0 01-3.82 3.063zm-2.199-1.33l.144.099c.55.435 1.221.686 1.92.719h.135a3.39 3.39 0 003.342-2.725 3.401 3.401 0 00-2.022-3.81l-.126-.054v-.135a3.382 3.382 0 00-3.357-3.119 3.4 3.4 0 00-3.42 3.164v.144h-.134A3.395 3.395 0 00.835 68.66a3.399 3.399 0 003.312 2.728 3.264 3.264 0 002.074-.72l.134-.09z" fill="#6E5CFF"/>
  </g>
  <defs>
    <clipPath id="clip0">
      <path fill="#fff" d="M0 0h149v80H0z"/>
    </clipPath>
  </defs>
</svg>