<svg xmlns="http://www.w3.org/2000/svg" fill="none" viewBox="0 0 164 80">
  <g clip-path="url(#students-illustration-simple_clip0)">
    <g clip-path="url(#students-illustration-simple_clip1)">
      <path opacity=".25" d="M97.04 124.371c34.298-35.715 45.47-15.567 64.223-48.689 7.501-13.231-21.594-23.235-56.038-49.897C70.782-.877 30.139 6.667 10.358 43.714c-19.78 37.047-2.89 109.815 34.232 111.853 22.71 1.229 38.38-16.535 52.45-31.196z" fill="#C8CEF6"/>
      <path d="M128.064 63.25l-6.27-7.641v-1.332l-.988-4.649-2.312-2.988-13.533-3.654-.989-.666.331-1.332L106.951 38l.662-1.994.33-3.654 2.957-1.958.988-2.327-.326-1.669-.989-1.332.331-1.66.662-.995h.988l1.651-5.98-1.324-6.31-4.951-6.305-7.594-3.321-5.26.995-5.612 3.996-2.97.333-4.288 5.647-.366 9.604h1.323l.989 2.664-1.981 1.66.992 3.668 1.65 1.66.662 3.996.662 2.664-3.631.995-2.97 2.988.331-2.326v-3.006l-1.98-4.649-2.966-6.318-1.65-11.957-1.981-5.648-3.632-3.32-3.631-.995-3.632.333-4.95-1.66L50.15 3.15l-5.944 3.996-4.284 7.628.988 3.996-1.65 4.316-3.31 6.305.353 6.331 2.295 4.63-.662.667-2.312 4.316.662 4.315.988 1.66-3.971 4.982-6.619 13.951-3.97 11.29v2.327l.988 4.65 8.582 14.944 1.98 1.661 1.651 1.993 3.3.333 2.97.666v.751l.662 2.326 69.977-.666v-8.391l-1.982-.666 4.62-1.661 1.981-1.332-.661-3.996-1.651-1.66-3.631-5.328-1.981-6.66-.6-5.586 2.312 1.66 3.631 2.665-.988 1.331 4.289 3.996 10.89 8.272 8.913-2.988 2.969-7.308-12.871-19.616zM41.581 97.46l-1.65.129-5.393-13.87 3.742-8.161 2.648 3.32.662 15.612-.01 2.97z" fill="#fff"/>
      <path d="M113.428 98.832l-5.665-4.182-4.532-11.784-.379-8.742.167-.822-1.301-.697.379-1.518-.379-1.142.754-1.9v-1.14l1.134-3.042 1.425-.822-.287 1.776 1.509-7.419 3.972-8.174-2.833-1.71-5.295 6.083-5.295 2.283-5.295-1.519-2.431-2.69-2.48-6.052L83.95 46s.23 4.147.33 6.162l-.674 23.86-1.135 8.366-1.513 5.7-3.022 4.183 2.647 1.141 2.268 1.9.755 1.142 1.133 3.8 12.845.382 17.001-2.664-1.156-1.14z" fill="#FEEB8E"/>
      <path d="M109.276 75.642l1.129.764 1.889 1.9 2.647 1.141-1.134 1.519 1.761 1.838.128 10.265-4.157-5.639-2.263-7.224v-4.564z" fill="#FEEB8E"/>
      <path fill-rule="evenodd" clip-rule="evenodd" d="M89.043 50.154c1.381 2.439 3.595 4.769 7.056 4.885 3.498.117 6.047-1.905 7.762-4.053a17.778 17.778 0 002.471-4.215l.026-.068.006-.016.001-.003.248-.673 4.274 2.276-.584 1.11-3.042-1.619a18.968 18.968 0 01-2.427 3.995c-1.833 2.297-4.719 4.657-8.776 4.521-4.093-.137-6.625-2.913-8.1-5.517a19.192 19.192 0 01-1.544-3.57A18.631 18.631 0 0186 45.702a7.516 7.516 0 01-.019-.091l-.005-.025-.002-.007v-.003l.613-.121.612-.121v.003l.004.018a7.904 7.904 0 00.087.376c.065.26.166.637.312 1.091.29.91.753 2.12 1.44 3.332z" fill="#6E5CFF"/>
      <path d="M116.83 52.647l3.777 2.087 5.666 6.846 14.733 21.286-3.018 7.224-9.068 2.66-15.112-11.212 6.42-9.315 13.224 6.46-14.733-7.22-3.023-6.082-3.777-1.9 4.532-9.506.379-1.328zM69.984 91.99l-6.42 6.46-10.957-16.725.376-4.183 21.536-26.986 2.643-.95.38 11.21-1.606 24.425-1.417-13.018-9.067 7.983 4.532 11.784z" fill="#FEEB8E"/>
      <path d="M54.703 12.416c2.374 3.89 5.736 6.354 8.494 7.162 2.206.644 8.273.688 8.273.688l-.088 1.248-3.331.737.776 1.723.57 1.332-3.998 8.627-3.95 4.218s-.1 6.309 3.95 8.609c1.377.781 6.217 2.815 6.217 2.815l4.17-4.884-2.55-6.1a11.548 11.548 0 012.978 4.44 5.458 5.458 0 002.029-2.22 5.5 5.5 0 00.552-2.962c-.238-2.966-4.942-10.723-4.942-10.723s.508-17.924-5.123-21.654c-2.007-1.332-4.593-1.283-6.65-.755-.802.21-1.707.71-2.528.182-2.722-1.749-6.495-1.158-7.576-.888.005-.004 1.567 6.51 2.727 8.405zM50.538 4.677s.14 4.13.335 5.804a17.628 17.628 0 001.765 5.638 34.517 34.517 0 01-3.706 4.254c-1.236 1.105-5.59 4.12-5.59 4.12l3.313 6.63 5.321 7.29s1.152 5.106-3.574 5.923c-3.706.643-10.188 4.253-10.188 4.253s-1.487-2.633-.362-4.604c1.72-3.01 3.971-3.015 3.971-3.015l-1.946-1.043s-2.087-4.205-2.162-8.201c-.101-4.79 2.93-10.412 2.93-10.412s-.693-5.856.256-7.463c4.593-7.775 9.637-9.174 9.637-9.174z" fill="#94F0DD"/>
      <path d="M77.463 44.957l-.808-.848c4.704-4.52 2.908-8.405-.67-14.874-1.638-2.961-2.132-6.793-2.608-10.496-.371-2.89-.724-5.621-1.571-7.952-2.105-5.772-5.988-8.139-10.93-6.62l-.26.08-.23-.151c-5.003-3.277-11.715-.888-15.31 3.277-1.563 1.82-3.676 5.718-4.347 7.694 1.143 3.406 1.293 5-1.13 8.8-.224.351-.44.697-.692 1.03-1.077 1.559-2.206 3.17-2.352 6.216a15.575 15.575 0 002.572 9.005l-.948.679a16.864 16.864 0 01-2.784-9.768c.185-3.361 1.447-5.19 2.559-6.802.234-.337.441-.657.666-.99 2.272-3.552 2.034-4.755.944-7.992l-.062-.182.058-.182c.644-2.052 2.908-6.283 4.637-8.29 3.87-4.502 11.089-7.05 16.6-3.64 5.423-1.546 9.826 1.145 12.108 7.414.882 2.455 1.266 5.377 1.632 8.205.441 3.592.94 7.309 2.471 10.08 3.239 5.873 6.04 10.94.455 16.307z" fill="#6E5CFF"/>
      <path d="M57.1 35.15c-.494-.002-.984-.081-1.453-.236a4.619 4.619 0 01-1.835-1.115.59.59 0 01-.114-.695.59.59 0 01.158-.193.59.59 0 01.776.058 3.552 3.552 0 002.979.977.588.588 0 01.22 1.154 4.591 4.591 0 01-.732.05zM48.08 46.516l-.106-1.168c2.207-.2 3.486-3.894 3.416-7.202l1.164-.022c.084 3.858-1.46 8.112-4.474 8.392zM65.853 47.475c-3.353-1.776-5.074-5.026-4.986-9.355l1.165.022c-.08 3.858 1.43 6.726 4.368 8.294l-.547 1.039z" fill="#6E5CFF"/>
      <path d="M56.71 40.06c-5.947 0-9.495-5.448-10.726-10.11a37.339 37.339 0 01-1.072-6.265l1.165-.058c.176 2.035.523 4.05 1.037 6.026 1.125 4.262 4.31 9.24 9.597 9.24 5.286 0 8.48-4.987 9.601-9.254.318-1.207.543-3.92.649-6.056l1.165.058c-.053 1.065-.256 4.666-.689 6.296-1.222 4.67-4.77 10.123-10.726 10.123z" fill="#6E5CFF"/>
      <path d="M67.389 29.32l-.441-1.088c.51-.23.941-.605 1.243-1.078.302-.473.46-1.024.456-1.586 0-.444-.142-1.013-.534-1.168l.44-1.092c.795.315 1.272 1.159 1.272 2.255a4.113 4.113 0 01-.662 2.244 4.075 4.075 0 01-1.774 1.513zM45.72 29.506a4.074 4.074 0 01-1.772-1.514 4.113 4.113 0 01-.66-2.242c0-1.097.477-1.94 1.271-2.256L45 24.587c-.392.155-.533.706-.533 1.167a2.907 2.907 0 00.455 1.586c.302.474.734.848 1.243 1.078l-.445 1.088zM57.681 31.189a5.557 5.557 0 01-.732-.054l.154-1.163c.733.098 1.271.027 1.514-.204a.822.822 0 00.177-.693 6.471 6.471 0 00-1.152-1.518l-.137-.142-.64-5.604.274-.2c.114-.084 2.806-2.033 5.736-.643l-.499 1.061c-1.848-.888-3.609-.044-4.275.35l.516 4.516c.534.577 1.288 1.492 1.324 2.091a1.944 1.944 0 01-.539 1.639 2.426 2.426 0 01-1.72.564z" fill="#6E5CFF"/>
      <path d="M43.01 25.32l-.335-1.142a23.384 23.384 0 006.786-3.286 22.63 22.63 0 003.318-3.059l.883.79a24.451 24.451 0 01-3.53 3.229 24.569 24.569 0 01-7.122 3.467zM66.083 22.477a14.453 14.453 0 01-8.662-2.892 14.603 14.603 0 01-5.233-7.524l1.116-.333a13.424 13.424 0 002.425 4.629 13.332 13.332 0 004.003 3.34 13.253 13.253 0 0010.145 1.053l.331 1.124c-1.339.4-2.728.604-4.125.604zM36.881 50.885a7.199 7.199 0 01-1.663-4.863 7.193 7.193 0 011.999-4.732 6.978 6.978 0 013.283-1.852l.273 1.141a5.81 5.81 0 00-2.736 1.541 6.004 6.004 0 00-.274 7.992l-.882.773zM40.738 95.866l-.675-12.743-.005-4.635-2.043-2.504 2.065-8.676 1.134.275-1.928 8.108 1.937 2.38.009 5.04.675 12.729-1.17.026z" fill="#6E5CFF"/>
      <path d="M34.79 84.327l-1.033-.542 4.633-9.222 1.037.542-4.637 9.222z" fill="#6E5CFF"/>
      <path d="M32.085 104.413c-1.2-2.335-2.564-4.657-3.887-6.9-2.798-4.75-5.445-9.244-6.05-13.15-.538-2.976 2.696-11.154 5.935-18.76l.251-.595c4.011-9.444 6.293-13.608 12.823-16.854l5.418-2.526.133.781c.053.377 1.323 9.266 9.01 9.297h.03c5.23 0 9.13-4.502 10.15-8.746l.167-.706.649.315c.053.026 5.445 2.633 6.817 3.206l-.441 1.083c-1.134-.47-4.766-2.22-6.248-2.926-1.364 4.467-5.551 8.951-11.089 8.951h-.035c-7.373-.027-9.513-7.144-10.025-9.546l-4.033 1.878c-6.177 3.055-8.384 7.104-12.253 16.246l-.252.595C27.39 70.181 22.74 81.152 23.3 84.149c.569 3.69 3.16 8.085 5.904 12.743 1.323 2.255 2.704 4.591 3.918 6.962l-1.037.559z" fill="#6E5CFF"/>
      <path d="M40.937 77.773l-.837.816 2.081 2.162.837-.816-2.081-2.162z" fill="#6E5CFF"/>
      <path d="M83.432 24.342s-2.206-5.705.653-11.62c2.86-5.913 6.641-6.49 6.641-6.49s6.764-7.362 15.647-2.14c8.882 5.22 7.139 13.764 7.139 13.764l-2.608 7.934-10.175-2.456-4.77-3.467-3.97-4.285-4.515 6.518-2.299 1.74-1.743.502z" fill="#C8CEF6"/>
      <path d="M112.727 23.237l-1.09-.391.794-2.296c1.862-6.06.168-10.371-1.584-12.92-2.846-4.147-7.545-6.252-10.709-6.451-6.08-.387-10.149 4.413-10.184 4.462l-.163.195h-.252c-1.791.102-3.446 1.021-4.787 2.664-2.074 2.527-3.01 6.256-2.506 9.973l.476 3.04-1.147.178-.441-3.037c-.547-4.044.485-8.107 2.762-10.882a8.004 8.004 0 012.38-2.072 7.957 7.957 0 012.99-.987c.882-.96 4.955-5.066 10.982-4.689 3.53.222 8.512 2.46 11.592 6.953 1.897 2.766 3.737 7.428 1.734 13.942l-.847 2.318zM103.537 41.454l-.265 4.271 1.158.073.265-4.272-1.158-.072zM123.55 59.094a15.837 15.837 0 00-6.738-5.936l.464-1.07a16.827 16.827 0 017.267 6.402l-.993.604zM69.004 57.811l-.882-.764 6.252-7.339 2.687-.8.327 1.124-2.357.697-6.027 7.082zM89.049 40.736l-.272 4.373 1.159.073.27-4.374-1.157-.072z" fill="#6E5CFF"/>
      <path d="M108.755 24.622l-.07 1.168a21.266 21.266 0 01-6.619-1.505c-.569-.231-1.116-.48-1.637-.733a24.165 24.165 0 01-4.54-2.953 24.878 24.878 0 01-3.905-3.996L86.3 24.29l-.931-.693 6.658-9.03.441.7a23.58 23.58 0 009.769 7.81c1.028.436 2.089.785 3.173 1.044a20.01 20.01 0 003.344.502z" fill="#6E5CFF"/>
      <path d="M108.729 32.494l-.574-1.017 1.425-.812c.478-.262.834-.702.993-1.226l.441-1.571a1.507 1.507 0 00-.229-1.332 1.915 1.915 0 00-1.469-.795l-1.805-.116.071-1.167 1.804.115a3.09 3.09 0 012.348 1.292 2.702 2.702 0 01.392 2.309l-.441 1.572a3.246 3.246 0 01-1.535 1.918l-1.421.83zM84.597 31.215l-1.323-.977a3.257 3.257 0 01-1.324-2.095l-.26-1.616a2.68 2.68 0 01.666-2.22 3.123 3.123 0 012.55-1.017l.966.062-.061 1.172-.967-.062a1.939 1.939 0 00-1.606.604 1.49 1.49 0 00-.384 1.256l.26 1.617c.099.538.403 1.016.848 1.332l1.324.976-.689.968z" fill="#6E5CFF"/>
      <path d="M96.45 44.535a8.795 8.795 0 01-5.936-2.326l-.467-.444c-3.627-1.141-5.794-4.684-5.52-9.067a9.34 9.34 0 01.168-1.27 29.52 29.52 0 00.44-4.941c.023-.697.05-1.417.093-2.131l.058-.889 1.16.072-.057.888c-.044.697-.066 1.407-.088 2.095a30.847 30.847 0 01-.442 5.133 8.145 8.145 0 00-.145 1.105c-.239 3.868 1.65 6.976 4.818 7.913l.128.04.662.608a7.591 7.591 0 009.575.6l.732-.52h.133c3.256-.533 5.52-3.38 5.736-7.246a7.97 7.97 0 000-1.115 30.934 30.934 0 01.176-5.155c.062-.683.128-1.394.172-2.09l.027-.73 1.16.072-.044.72c-.044.714-.11 1.429-.172 2.122a29.615 29.615 0 00-.176 4.955c.029.425.029.853 0 1.278-.274 4.383-2.855 7.628-6.619 8.303l-.516.364a8.787 8.787 0 01-5.057 1.656z" fill="#6E5CFF"/>
      <path d="M96.758 38.692c-1.191 0-2.41-.51-3.79-1.545a.585.585 0 01-.213-.63.582.582 0 01.906-.31c2.135 1.602 3.618 1.722 5.48.443a.58.58 0 01.895.327.59.59 0 01-.229.632 5.296 5.296 0 01-3.049 1.083zM93.524 24.125c-2.678-.71-4.466-.32-5.238-.058a.575.575 0 01-.684-.266.583.583 0 01.314-.84c.953-.328 2.965-.745 5.904.036a.579.579 0 01.36.28.59.59 0 01.05.457.581.581 0 01-.706.39zM105.424 24.111l-.199.51a6.79 6.79 0 00-3.159-.363 4.099 4.099 0 00-1.231.36 2.366 2.366 0 00-1.275 1.434c-.52 1.625-.463 3.742-.441 5.288 0 .497.022.928 0 1.274v.444l-.442.098c-.417.091-.843.139-1.27.142a4.054 4.054 0 01-1.58-.285l.441-1.074a3.466 3.466 0 001.695.155v-.732c-.04-1.625-.093-3.858.485-5.674a3.557 3.557 0 011.875-2.127.879.879 0 01.106-.045 5.388 5.388 0 011.818-.444c1.029.434 2.091.782 3.177 1.04z" fill="#6E5CFF"/>
      <path d="M102.859 27.498l-.059.944a.584.584 0 00.543.622c.32.02.595-.226.615-.549l.059-.944a.584.584 0 00-.543-.621.582.582 0 00-.615.549zM61.674 24.454l-.058.944a.584.584 0 00.542.62c.32.021.596-.225.616-.548l.058-.944a.584.584 0 00-.543-.62.583.583 0 00-.615.548zM51.853 24.836l-.058.944a.584.584 0 00.542.62c.32.02.596-.225.616-.548l.058-.944a.584.584 0 00-.543-.62.583.583 0 00-.615.548zM89.95 26.735l-.08 1.271a.584.584 0 00.543.622c.32.02.596-.226.616-.549l.079-1.272a.584.584 0 00-.543-.62.583.583 0 00-.616.548zM74.78 87.28l-.57-10.044-.14-13.915 1.164-.013.137 13.901.57 10.004-1.161.066zM114.836 80.002l-3.133-1.545-2.449-2.464-4.911-1.385-2.603-1.155-.075-.08a1.772 1.772 0 01-.623-1.243c.012-.326.131-.639.34-.888a2.012 2.012 0 01-.494-1.274 2.224 2.224 0 01.882-1.559 2.393 2.393 0 01.715-2.664l.781.866a1.16 1.16 0 00-.3 1.563l.327.444-.525.488c-.358.333-.698.644-.702.915.07.334.256.631.525.84l.441.416-.441.418c-.093.089-.371.368-.371.47 0 0 0 .107.212.338l2.321 1.03 5.101 1.447 2.528 2.545 2.961 1.46-.507 1.017z" fill="#6E5CFF"/>
      <path d="M106.558 72.418l-1.703-.484-2.851-.24.097-1.163 2.961.25 1.809.514-.313 1.123zM106.2 67.634l-2.162.14.074 1.166 2.162-.14-.074-1.166zM106.615 64.398l-1.936.498.287 1.132 1.937-.499-.288-1.13zM108.508 63.438l-.59 7.894 1.157.088.59-7.895-1.157-.087z" fill="#6E5CFF"/>
      <path d="M119.416 73.09l-2.118-2.332-1.977-5.168c-.966-.444-4.973-2.304-6.531-2.77-.383-.112-1.897.244-4.487 1.056-.066.027-.481.218-.477 1.128h-1.16c0-1.776 1.103-2.194 1.324-2.256 2.621-.825 4.412-1.292 5.162-1.06 1.853.55 6.698 2.836 6.906 2.93l.212.097 2.069 5.404 1.972 2.17-.895.8z" fill="#6E5CFF"/>
      <path d="M112.961 63.694l-1.148-.173c.415-2.775 2.352-6.554 3.91-9.59l.56-1.097c.194-.392.226-.845.09-1.261a1.655 1.655 0 00-.818-.96l-2.828-1.456a1.639 1.639 0 00-2.206.684c-1.827 3.339-4.135 8.476-5.128 12.876l-1.134-.257c1.02-4.538 3.376-9.795 5.242-13.2a2.81 2.81 0 011.634-1.345 2.792 2.792 0 012.104.181l2.846 1.448a2.816 2.816 0 011.403 1.646 2.847 2.847 0 01-.168 2.163l-.565 1.101c-1.518 2.984-3.406 6.67-3.794 9.24zM115.348 100.222c-.267 0-.531-.047-.781-.138-5.759-2.073-9.708-7.397-11.473-15.402a44.157 44.157 0 01-.917-11.473l1.16.089a43.755 43.755 0 00.883 11.162c1.685 7.681 5.294 12.57 10.726 14.523a1.149 1.149 0 001.072-.155 1.178 1.178 0 00.499-1l-.053-2.623a1.213 1.213 0 00-.415-.888c-4.196-3.641-6.023-8.632-6.817-12.18a28.54 28.54 0 01-.715-6.9l1.161.054c0 .116-.442 11.544 7.148 18.129a2.378 2.378 0 01.816 1.745l.053 2.624a2.383 2.383 0 01-.668 1.702 2.35 2.35 0 01-1.675.713l-.004.018zM63.59 99.196L51.875 81.627l1.099-4.715 12.963-17.458.931.701L54.05 77.413l-.926 3.983 10.669 16.002 5.828-5.541-5.03-11.486-3.918.626-.18-1.155 4.8-.768 5.723 13.067-7.426 7.055z" fill="#6E5CFF"/>
      <path d="M65.443 80.229l-.72-.924 9.311-7.068.715.919-9.306 7.073z" fill="#6E5CFF"/>
      <path d="M74.21 91.622l-1.01-.578c.035-.066 3.724-6.85 3.733-22.812 0-3.495-.11-7.464-.208-10.963-.083-2.908-.15-5.421-.145-7.153.005-.796.25-1.572.703-2.226a3.927 3.927 0 011.83-1.437l.075-.022 5.603-1.26.256 1.14-5.564 1.252c-.51.203-.95.555-1.26 1.01-.31.456-.479.995-.483 1.548 0 1.714.067 4.218.146 7.104.097 3.508.212 7.481.207 10.998-.008 16.339-3.728 23.119-3.883 23.399z" fill="#6E5CFF"/>
      <path d="M77.996 95.174l-.516-1.048c.031 0 4.488-2.709 5.834-21.472.578-8.028.44-24.789.44-24.957h1.161c0 .168.15 16.974-.441 25.05-1.412 19.683-6.27 22.325-6.478 22.427zM74.135 50.347c0-.049-1.019-4.973 4.916-6.962 5.533-1.855 8.463-1.989 10.59-1.878l-.062 1.168c-2.03-.107-4.823.027-10.149 1.816-4.92 1.652-4.183 5.443-4.147 5.603l-1.148.253zM122.032 55.538l-1.125-.289c.053-.204 1.218-5.101-2.855-7.876-4.297-2.926-13.894-3.823-13.991-3.832l.105-1.163c.406.035 9.995.932 14.561 4.027 4.735 3.236 3.323 9.07 3.305 9.133z" fill="#6E5CFF"/>
      <path d="M78.685 44.127a4.21 4.21 0 01.41-3.13c.98-1.839 3.146-3.224 6.438-4.112l.3 1.128c-2.93.795-4.907 2.016-5.736 3.552a3.08 3.08 0 00-.331 2.22l-1.081.342zM118.463 47.444c-.331-3.881-2.334-6.532-5.948-7.877a15.056 15.056 0 00-5.454-.888l-.071-1.154c2.016-.06 4.024.26 5.922.945 2.802 1.044 6.239 3.428 6.702 8.88l-1.151.093zM128.523 93.615L113.137 81.25l7.117-10.15 13.873 7.304-.539 1.039-12.972-6.83-5.9 8.41 14.05 11.287 8.741-2.766 2.872-6.83-5.882-8.701-9.809-13.871.945-.675 9.817 13.875 6.248 9.244-3.331 7.912-9.844 3.117z" fill="#6E5CFF"/>
    </g>
  </g>
  <defs>
    <clipPath id="students-illustration-simple_clip0">
      <path fill="#fff" d="M0 0h164v80H0z"/>
    </clipPath>
    <clipPath id="students-illustration-simple_clip1">
      <path fill="#fff" d="M2 0h160v80H2z"/>
    </clipPath>
  </defs>
</svg>