<svg xmlns="http://www.w3.org/2000/svg" fill="none" viewBox="0 0 160 80">
  <path d="M106.169 60.919h-69.09c-.792 0-1.519-.63-1.519-1.448V22.697c0-1.449 1.255-2.645 2.774-2.645h66.448c1.519 0 2.774 1.196 2.774 2.645V59.47c.066.82-.594 1.449-1.387 1.449z" fill="#C8CEF6"/>
  <path fill-rule="evenodd" clip-rule="evenodd" d="M104.847 20.397h-4.69v-.688h4.69c1.719 0 3.135 1.35 3.135 2.989v17.254h-.722V22.698c0-1.258-1.093-2.3-2.413-2.3zM35.066 22.698c0-1.638 1.416-2.988 3.135-2.988h4.69v.688H38.2c-1.32 0-2.413 1.042-2.413 2.3v18.513h-.722V22.698z" fill="#6E5CFF"/>
  <path d="M103.856 24.02H39.522v32.303h64.334V24.02z" fill="#fff"/>
  <path d="M82.456 67.091H60.725v12.28h21.73V67.09z" fill="#E3E6FA"/>
  <path d="M82.456 67.091H60.725V73.2h21.73v-6.108z" fill="#C8CEF6"/>
  <path fill-rule="evenodd" clip-rule="evenodd" d="M60.363 66.747h22.453v12.967H60.363V66.747zm.722.688v11.591h21.01v-11.59h-21.01z" fill="#6E5CFF"/>
  <path d="M107.621 59.409H35.559v4.786c0 2.518 2.114 4.533 4.756 4.533h62.551c2.642 0 4.755-2.015 4.755-4.533v-4.786z" fill="#fff"/>
  <path fill-rule="evenodd" clip-rule="evenodd" d="M35.199 59.065h59.873v.688H35.92v4.442c0 2.328 1.952 4.19 4.394 4.19H94.94v.687H40.315c-2.841 0-5.116-2.169-5.116-4.877v-5.13zM86.947 79.903H56.564v-.688h30.383v.688z" fill="#6E5CFF"/>
  <path opacity=".3" d="M99.299 20.054H44.542l1.981 36.08h50.794l1.982-36.08z" fill="#0565A2"/>
  <path d="M97.318 56.135V3.241c0-1.574-1.387-2.896-3.039-2.896H49.563c-1.652 0-3.039 1.322-3.039 2.896v52.894h50.794z" fill="#fff"/>
  <path d="M46.524 7.838V2.801c0-1.323 1.123-2.456 2.576-2.456h45.708c1.387 0 2.576 1.07 2.576 2.456v5.037h-50.86z" fill="#E3E6FA"/>
  <path fill-rule="evenodd" clip-rule="evenodd" d="M49.1.688c-1.248 0-2.215.974-2.215 2.112v53.209h-.722V2.799C46.163 1.294 47.44 0 49.1 0h6.803v.688H49.1zM94.807.751H64.688V.063h30.12c1.58 0 2.936 1.219 2.936 2.8v49.43h-.722V2.864c0-1.19-1.021-2.112-2.215-2.112zM61.782.751H58.28V.063h3.5v.688z" fill="#6E5CFF"/>
  <path fill-rule="evenodd" clip-rule="evenodd" d="M97.317 8.308H46.524V7.62h50.793v.688zM53.723 4.844h-1.32v-.688h1.32v.688zM57.818 4.844h-1.387v-.688h1.387v.688zM61.847 4.844H60.46v-.688h1.387v.688z" fill="#6E5CFF"/>
  <path d="M61.847 40.204H50.553v13.979h11.294v-13.98zM77.568 40.204H66.273v13.979h11.295v-13.98zM93.486 40.204H82.191v13.979h11.295v-13.98z" fill="#66EACF"/>
  <path fill-rule="evenodd" clip-rule="evenodd" d="M79.88 38.03H64.027v-.69H79.88v.69z" fill="#00DCAF"/>
  <path d="M93.552 12.371h-43v22.921h43v-22.92z" fill="#D2FFF6"/>
  <path d="M93.486 20.18h-1.85l-2.707 1.7h-6.077l-1.85 2.518-3.434 2.33-6.671.063-1.784-1.322-3.434 1.637h-6.672l-6.605 5.73h-1.85v2.52h42.934V20.18z" fill="#66EACF"/>
  <path fill-rule="evenodd" clip-rule="evenodd" d="M91.528 19.835h1.958v.688h-1.741l-2.708 1.7H83.04l-1.778 2.421-3.577 2.427-6.91.065-1.704-1.262-3.307 1.576h-6.617l-6.605 5.73h-1.99v-.688h1.71l6.606-5.73h6.725l3.562-1.698 1.864 1.382 6.432-.06 3.291-2.234 1.922-2.617h6.156l2.709-1.7z" fill="#00DCAF"/>
  <path fill-rule="evenodd" clip-rule="evenodd" d="M143.232 22.753l-2.51-2.393.51-.486 2.51 2.393-.51.486z" fill="#6E5CFF"/>
  <path d="M129.155 8.844c-3.369 3.211-3.369 8.375 0 11.586 3.368 3.212 8.784 3.212 12.153 0 3.369-3.211 3.369-8.375 0-11.586-3.369-3.212-8.851-3.212-12.153 0zm10.634 10.2c-2.576 2.456-6.671 2.456-9.247 0-2.576-2.455-2.576-6.36 0-8.815 2.576-2.456 6.671-2.456 9.247 0 2.576 2.393 2.576 6.36 0 8.816z" fill="#E3E6FA"/>
  <path fill-rule="evenodd" clip-rule="evenodd" d="M128.897 8.603c3.446-3.35 9.158-3.345 12.666-.001 3.509 3.346 3.509 8.727 0 12.073-3.51 3.345-9.155 3.345-12.664 0-3.51-3.346-3.51-8.726-.002-12.072zm12.155.485c-3.229-3.078-8.481-3.075-11.64-.002l-.003.002c-3.227 3.077-3.227 8.023 0 11.1 3.228 3.077 8.415 3.077 11.643 0 3.228-3.077 3.228-8.023 0-11.1z" fill="#6E5CFF"/>
  <path fill-rule="evenodd" clip-rule="evenodd" d="M138.806 11.733c-2.17-2.07-5.641-2.07-7.811 0l-.511-.486c2.453-2.338 6.38-2.338 8.833 0l-.511.486z" fill="#6E5CFF"/>
  <path d="M143.943 20.698l-2.382 2.27 8.034 7.66 2.381-2.272-8.033-7.658z" fill="#E3E6FA"/>
  <path fill-rule="evenodd" clip-rule="evenodd" d="M143.949 20.134l4.219 4.022-.511.486-3.708-3.535-1.867 1.78 7.209 6.873c.175.167.483.197.757-.012l1.176-1.122c.175-.167.207-.46-.013-.722l-.516-.491-.594-.567.511-.486 1.134 1.081.011.012c.43.492.46 1.2-.022 1.66l-1.201 1.144-.012.01c-.517.41-1.259.44-1.742-.02l-7.719-7.36 2.888-2.753z" fill="#6E5CFF"/>
  <path fill-rule="evenodd" clip-rule="evenodd" d="M148.762 24.785l1.255 1.196-.51.486-1.255-1.195.51-.487zM145.988 22.501l-2.51 2.393-.51-.486 2.509-2.393.511.486z" fill="#6E5CFF"/>
  <path fill-rule="evenodd" clip-rule="evenodd" d="M125.388 14.92h-10.7v-.688h10.7v.688zM125.389 17.753h-10.766v-.688h10.766v.688zM126.512 20.524h-11.889v-.689h11.889v.689zM130.277 23.358h-15.654v-.689h15.654v.689z" fill="#9588FF"/>
  <g opacity=".3" fill="#0565A2">
    <path opacity=".3" d="M55.837 43.793c0-.945-.793-1.7-1.784-1.7H35.56v16.813h-.462v5.226c0 2.77 2.377 4.974 5.218 4.974h15.522V43.793zM56.76 79.118h-.197v.25c.066-.124.131-.187.197-.25z"/>
  </g>
  <path d="M53.327 77.605H3.524c-.33 0-.66-.252-.66-.63V43.224c0-.315.33-.63.66-.63h49.803c.33 0 .66.315.66.63v33.814c0 .315-.264.567-.66.567z" fill="#C8CEF6"/>
  <path fill-rule="evenodd" clip-rule="evenodd" d="M11.649 42.94H8.742v-.688h2.907v.688z" fill="#6E5CFF"/>
  <path fill-rule="evenodd" clip-rule="evenodd" d="M4.119 42.94c-.474 0-.894.362-.894.853V76.41c0 .451.379.852.894.852h48.614c.473 0 .893-.361.893-.852V43.793c0-.452-.379-.852-.893-.852H13.035v-.689h39.697c.938 0 1.616.733 1.616 1.54v32.619c0 .894-.769 1.54-1.616 1.54H4.119c-.939 0-1.616-.733-1.616-1.54V43.793c0-.895.768-1.54 1.616-1.54h3.038v.688H4.12z" fill="#6E5CFF"/>
  <path d="M51.28 45.367H5.373V73.83h45.905V45.367zM53.129 79.56H3.194c-1.189 0-2.246-.82-2.444-1.953L.42 75.53h23.118l.858 1.197h6.407l.925-1.197h24.373l-.33 1.826c-.132 1.26-1.255 2.204-2.642 2.204z" fill="#fff"/>
  <path fill-rule="evenodd" clip-rule="evenodd" d="M0 75.185h23.728l.859 1.197h6.034l.925-1.197H56.53l-.401 2.217c-.158 1.438-1.442 2.501-3 2.501H3.194c-1.36 0-2.572-.934-2.8-2.24v-.004L0 75.185zm.84.688l.267 1.68c.169.96 1.07 1.662 2.087 1.662h49.935c1.212 0 2.17-.82 2.283-1.894v-.012l.26-1.436H31.912l-.925 1.197h-6.78l-.859-1.197H.84z" fill="#6E5CFF"/>
  <path d="M38.665 50.025H18.519l-3.369 5.541 13.409 14.61 13.408-14.61-3.302-5.54z" fill="#FEE25D"/>
  <path fill-rule="evenodd" clip-rule="evenodd" d="M18.31 49.683h20.564l3.533 5.928-13.85 15.088-13.85-15.09 3.603-5.926zm.416.688l-3.134 5.156 12.966 14.127 12.968-14.129-3.073-5.154H18.726z" fill="#AC7200"/>
  <path fill-rule="evenodd" clip-rule="evenodd" d="M41.966 55.912H15.15v-.688h26.817v.688z" fill="#AC7200"/>
  <path fill-rule="evenodd" clip-rule="evenodd" d="M22.15 55.43l6.738 14.608-.66.277-6.738-14.609.66-.277z" fill="#AC7200"/>
  <path fill-rule="evenodd" clip-rule="evenodd" d="M35.626 55.392l-6.738 14.546-.66-.278 6.737-14.546.66.278z" fill="#AC7200"/>
  <path fill-rule="evenodd" clip-rule="evenodd" d="M28.197 69.799V55.568h.722v14.23h-.722zM21.507 55.738l-3.303-5.541.628-.34 3.303 5.541-.628.34z" fill="#AC7200"/>
  <path fill-rule="evenodd" clip-rule="evenodd" d="M28.246 55.74l-3.369-5.54.625-.346 3.368 5.542-.624.345zM34.983 55.74l-3.369-5.54.625-.346 3.369 5.542-.625.345z" fill="#AC7200"/>
  <path fill-rule="evenodd" clip-rule="evenodd" d="M34.981 55.398l3.303-5.541.628.34-3.303 5.541-.628-.34zM28.246 55.396l3.368-5.542.625.345-3.369 5.542-.624-.345zM21.508 55.396l3.369-5.542.625.345-3.369 5.542-.625-.345z" fill="#AC7200"/>
  <g opacity=".3" fill="#0565A2">
    <path opacity=".3" d="M101.479 53.238h-7.728l-2.378 4.723h3.302v11.208h.33v-.44h7.927c2.642 0 4.755-2.016 4.755-4.534V53.3h-6.208v-.063z"/>
    <path opacity=".3" d="M105.111 45.556l1.585 1.511a10.706 10.706 0 00-1.321 3.086h-2.245c-.595 0-1.123.188-1.586.63a2.15 2.15 0 00-.66 1.51v1.008H107.687V40.707c-.462.063-.859.252-1.123.567l-1.387 1.322c-.396.378-.66.945-.66 1.449a1.673 1.673 0 00.594 1.51z"/>
  </g>
  <path d="M135.033 53.236v-.944c0-.882-.727-1.638-1.718-1.638h-2.642a11.122 11.122 0 00-1.585-3.589l1.849-1.763a1.544 1.544 0 000-2.267l-1.387-1.322a1.732 1.732 0 00-2.377 0l-1.85 1.763c-1.123-.693-2.444-1.197-3.765-1.511v-2.52c0-.88-.792-1.636-1.717-1.636h-1.982c-.924 0-1.717.755-1.717 1.637v2.519c-1.321.314-2.576.818-3.765 1.448l-1.849-1.763a1.733 1.733 0 00-2.378 0l-1.387 1.322a1.544 1.544 0 000 2.267l1.849 1.763c-.726 1.07-1.255 2.33-1.585 3.59h-2.642c-.925 0-1.718.692-1.718 1.637v1.007h10.767c0-2.833 2.444-5.163 5.416-5.163 2.972 0 5.416 2.267 5.416 5.163h10.767z" fill="#fff"/>
  <path fill-rule="evenodd" clip-rule="evenodd" d="M115.781 39.448c0-1.072.954-1.981 2.078-1.981h1.982c1.124 0 2.078.91 2.078 1.98v2.254c1.166.3 2.327.746 3.352 1.34l1.646-1.57a2.107 2.107 0 012.889 0l1.387 1.323c.801.764.801 1.99 0 2.753l-1.646 1.57c.623.97 1.092 2.036 1.408 3.195h2.36c1.2 0 2.079.919 2.079 1.982v1.288h-33.088v-1.351c0-1.143.964-1.982 2.079-1.982h2.363c.315-1.11.782-2.218 1.405-3.195l-1.646-1.57a1.878 1.878 0 010-2.753l1.387-1.322a2.107 2.107 0 012.889 0l1.658 1.58a16.33 16.33 0 013.34-1.288v-2.253zm2.078-1.293c-.725 0-1.356.601-1.356 1.293v2.787l-.273.066c-1.286.306-2.511.797-3.678 1.415l-.238.126-2.042-1.947a1.359 1.359 0 00-1.867 0l-1.387 1.322a1.21 1.21 0 000 1.78l2.056 1.96-.159.234c-.701 1.033-1.215 2.256-1.538 3.486l-.068.26h-2.924c-.735 0-1.356.548-1.356 1.294v.663h10.055c.189-2.866 2.715-5.163 5.766-5.163 3.05 0 5.581 2.24 5.766 5.163h10.056v-.6c0-.7-.574-1.293-1.357-1.293h-2.927l-.066-.265a10.79 10.79 0 00-1.537-3.482l-.159-.233 2.056-1.96c.52-.495.52-1.285 0-1.78l-1.387-1.323a1.359 1.359 0 00-1.867 0l-2.056 1.96-.245-.151c-1.083-.669-2.366-1.159-3.656-1.467l-.274-.065v-2.787c0-.692-.631-1.293-1.356-1.293h-1.982zm6.034 14.74c-.184-2.538-2.386-4.476-5.043-4.476-2.651 0-4.855 1.99-5.042 4.475h10.085z" fill="#6E5CFF"/>
  <path d="M96.532 79.6h5.813V53.718h-5.813v25.88z" fill="#ACB0EE"/>
  <path fill-rule="evenodd" clip-rule="evenodd" d="M96.163 53.335h6.535v26.568h-4.985c-.835 0-1.627-.64-1.55-1.555V53.335zm.722.688v24.355l-.001.016c-.044.46.348.82.83.82h4.262V54.024h-5.09z" fill="#6E5CFF"/>
  <path d="M93.486 57.457h5.879l1.849-3.778h-5.812l-1.916 3.778z" fill="#E3E6FA"/>
  <path fill-rule="evenodd" clip-rule="evenodd" d="M95.175 53.335h6.606L99.595 57.8H92.91l2.264-4.466zm.453.688l-1.567 3.09h5.074l1.512-3.09h-5.019z" fill="#6E5CFF"/>
  <path d="M137.543 53.679h-35.206v25.88h35.206V53.68z" fill="#C8CEF6"/>
  <path fill-rule="evenodd" clip-rule="evenodd" d="M101.976 53.335h35.927V66.02h-.722V54.023h-34.483v25.192h32.532c1.056 0 1.951-.853 1.951-1.86v-2.267h.722v2.267c0 1.386-1.218 2.548-2.673 2.548h-33.254V53.335z" fill="#6E5CFF"/>
  <path d="M140.514 57.457h-35.205l-1.915-3.778h35.205l1.915 3.778z" fill="#E3E6FA"/>
  <path fill-rule="evenodd" clip-rule="evenodd" d="M102.818 53.335h36.008l2.264 4.466h-36.007l-2.265-4.466zm1.151.688l1.567 3.09h34.403l-1.566-3.09h-34.404z" fill="#6E5CFF"/>
  <path opacity=".2" d="M137.542 79.56v-.693c.33-.441.463-.945.463-1.512v-2.267h-.463v-9.067h.463v-6.297h-1.255v-.44h-1.057v.44h-2.312v-.44h-3.831c-1.057 0-1.915.818-1.915 1.825v17.065c0 1.007.858 1.826 1.915 1.826h5.614c.595 0 1.123-.189 1.586-.504h.792v.063zM160 78.174V61.109c0-1.007-.859-1.826-1.915-1.826h-10.04v14.86h.528v2.079c-.594 0-1.189.252-1.585.63-.462.44-.727 1.007-.727 1.637v1.07H159.406c.33-.315.594-.818.594-1.385z" fill="#7870E8"/>
  <path d="M156.896 79.56h-26.024c-.727 0-1.321-.567-1.321-1.26V61.047c0-.693.594-1.26 1.321-1.26h26.024c.727 0 1.321.567 1.321 1.26v17.317c0 .63-.594 1.196-1.321 1.196z" fill="#fff"/>
  <path opacity=".5" d="M129.485 63.942v-2.834c0-.755.66-1.385 1.453-1.385h25.826c.792 0 1.453.63 1.453 1.385v2.834h-28.732z" fill="#C8CEF6"/>
  <path fill-rule="evenodd" clip-rule="evenodd" d="M130.937 60.069c-.593 0-1.092.475-1.092 1.041v17.065c0 .565.499 1.04 1.092 1.04h25.826c.593 0 1.092-.475 1.092-1.04V61.11c0-.566-.499-1.041-1.092-1.041h-17.041v-.688h17.041c.992 0 1.814.783 1.814 1.729v17.065c0 .945-.822 1.729-1.814 1.729h-25.826c-.992 0-1.814-.784-1.814-1.73V61.11c0-.946.822-1.73 1.814-1.73h3.831v.689h-3.831z" fill="#6E5CFF"/>
  <path fill-rule="evenodd" clip-rule="evenodd" d="M138.137 60.068h-1.057v-.688h1.057v.688zM158.216 64.413h-28.732v-.688h28.732v.688zM133.91 62.46h-1.123v-.687h1.123v.688zM136.618 62.46h-1.189v-.687h1.189v.688zM139.26 62.46h-1.123v-.687h1.123v.688z" fill="#6E5CFF"/>
  <path d="M152.8 77.04h-17.966c-.595 0-1.057-.44-1.057-1.007v-8.878c0-.567.462-1.008 1.057-1.008H152.8c.594 0 1.057.44 1.057 1.008v8.878c.066.504-.463 1.008-1.057 1.008z" fill="#FFE8EA"/>
  <path fill-rule="evenodd" clip-rule="evenodd" d="M134.834 66.49c-.395 0-.696.288-.696.664v8.879c0 .377.301.663.696.663H152.8a.771.771 0 00.521-.214c.139-.132.194-.284.178-.406l-.003-.022v-8.9c0-.376-.301-.663-.696-.663h-17.966zm-1.418.664c0-.756.624-1.351 1.418-1.351H152.8c.794 0 1.418.595 1.418 1.351v8.86c.04.372-.135.715-.386.955a1.514 1.514 0 01-1.032.416h-17.966c-.794 0-1.418-.595-1.418-1.352v-8.879z" fill="#F97481"/>
  <path d="M145.601 70.744l-3.171 1.763a.296.296 0 01-.462-.252v-3.526c0-.252.264-.378.462-.252l3.171 1.763c.198.126.198.44 0 .504z" fill="#FED5D9"/>
  <path fill-rule="evenodd" clip-rule="evenodd" d="M142.329 68.819v3.346l3.008-1.673-3.008-1.673zm.291-.635c-.444-.272-1.013.03-1.013.544v3.527c0 .514.569.816 1.013.544l3.137-1.744a.57.57 0 00.353-.54.668.668 0 00-.309-.561l-.009-.006-3.172-1.764zM151.479 74.992h-15.456v-.689h15.456v.689z" fill="#F97481"/>
  <path fill-rule="evenodd" clip-rule="evenodd" d="M139.819 73.451v2.33h-.722v-2.33h.722z" fill="#F97481"/>
  <path opacity=".25" d="M1.026 64.467c.92-7.002 9.455-11.329 10.145-18.356.613-6.377-5.469-11.553-6.44-17.88-.638-4.202 1.201-8.653 4.677-11.204 8.1-5.977 20.776-.425 29.387-5.677 2.99-1.8 5.137-4.751 8.178-6.477 5.213-2.976 11.78-1.825 17.683-.575C70.151 5.448 75.85 6.7 80.398 9.925c2.837 2 5.11 4.726 8.152 6.402 5.392 3 12.164 2.276 17.99 4.426 7.641 2.801 12.522 10.003 16.457 17.005 5.827 10.304 10.861 21.857 10.299 33.41a36.8 36.8 0 01-3.604 4.302c-.562.375-1.098.75-1.686 1.076-8.152.75-16.355 1.45-24.532.95-13.825-.875-27.216-5.277-41.04-5.902-10.274-.475-20.546 1.15-30.513 3.601-6.312 1.55-12.802 3.451-19.191 2.276C6.34 76.27.208 70.769 1.026 64.467z" fill="#C8CEF6"/>
</svg>