<svg xmlns="http://www.w3.org/2000/svg" fill="none" viewBox="0 0 146 80">
  <g clip-path="url(#teams-illustration-simple_clip0)">
    <path d="M28.8623 52.5292H16.9448L23.2814 58.0283L28.8623 52.5292Z" fill="#C1E0DB" stroke="#6E5CFF" stroke-width="0.843399" stroke-miterlimit="10" stroke-linecap="round" stroke-linejoin="round"/>
    <path d="M34.3848 35.1638C34.3848 35.1638 37.0008 34.8744 36.7101 36.9004C36.4195 38.9264 35.2568 42.0233 34.3848 41.6181C34.3848 41.6181 34.9661 36.611 34.3848 35.1638Z" fill="white" stroke="#6E5CFF" stroke-width="0.843399" stroke-miterlimit="10" stroke-linecap="round" stroke-linejoin="round"/>
    <path d="M12.5847 35.1638C12.5847 35.1638 9.96869 34.8744 10.2594 36.9004C10.55 38.9264 11.7127 42.0233 12.5847 41.6181C12.5847 41.6181 12.0034 36.611 12.5847 35.1638Z" fill="white" stroke="#6E5CFF" stroke-width="0.843399" stroke-miterlimit="10" stroke-linecap="round" stroke-linejoin="round"/>
    <path d="M43.3659 63.3247C43.1624 62.0802 42.7845 60.8646 42.1451 59.7648C41.5056 58.636 40.5754 57.5073 39.2674 57.131C36.477 56.3206 26.943 54.4104 26.943 54.4104H23.9201H22.7283H19.7344C19.7344 54.4104 10.2005 56.3206 7.41004 57.131C6.10202 57.5073 5.17188 58.665 4.53241 59.7648C3.89294 60.8646 3.51507 62.0802 3.3116 63.3247L0.666504 80.6035H23.1062H23.5713H46.011L43.3659 63.3247Z" fill="#C8CEF6" stroke="#6E5CFF" stroke-width="0.843399" stroke-miterlimit="10"/>
    <path d="M27.4088 49.3457V56.5235C27.4088 56.5235 25.9555 58.289 23.2813 58.289C20.0258 58.289 18.9503 56.5235 18.9503 56.5235L18.9212 55.9447L18.7178 49.23L27.4088 49.3457Z" fill="white" stroke="#6E5CFF" stroke-width="0.843399" stroke-miterlimit="10" stroke-linecap="round" stroke-linejoin="round"/>
    <path opacity="0.2" d="M18.8342 51.5742C18.8342 51.5742 20.8689 52.1531 23.078 52.1531C25.2871 52.1531 27.409 51.6032 27.409 51.6032V54.0343C27.409 54.0343 25.9266 54.6711 23.078 54.3527C20.5782 54.0633 18.8342 52.6451 18.8342 52.6451V51.5742Z" fill="#ACB0EE"/>
    <path opacity="0.25" d="M143.864 66.5515C142.863 58.9709 133.583 54.2871 132.833 46.6794C132.166 39.7756 138.779 34.1714 139.835 27.3217C140.529 22.7734 138.529 17.9542 134.75 15.1927C125.942 8.72212 112.161 14.7325 102.797 9.047C99.546 7.0977 97.2121 3.90301 93.9056 2.03492C88.2374 -1.18684 81.0966 0.0585443 74.6782 1.41223C68.7043 2.65762 62.5082 4.0113 57.5624 7.5038C54.4782 9.6697 52.0053 12.6207 48.6989 14.4347C42.8362 17.6835 35.473 16.8984 29.138 19.2267C20.8302 22.259 15.5232 30.0562 11.2442 37.6368C4.90917 48.7912 -0.564538 61.2992 0.0467395 73.8072C1.24151 75.4587 2.54742 77.029 3.96447 78.4639C4.57575 78.87 5.15924 79.2761 5.79831 79.6281C14.6618 80.4403 23.5809 81.1983 32.4722 80.6569C47.5041 79.7093 62.0636 74.9443 77.0955 74.2675C88.2652 73.7531 99.4349 75.5129 110.271 78.1661C117.134 79.8446 124.192 81.9023 131.138 80.6298C138.084 79.3303 144.753 73.374 143.864 66.5515Z" fill="#C8CEF6"/>
    <path d="M113.657 63.4102C113.483 62.1657 113.105 60.9501 112.523 59.8502C111.942 58.7215 111.041 57.5927 109.849 57.2165C107.233 56.4061 98.3387 54.4958 98.3387 54.4958H95.5192H94.3856H91.5661C91.5661 54.4958 82.6716 56.4061 80.0556 57.2165C78.8348 57.5927 77.9627 58.7504 77.3814 59.8502C76.8001 60.9501 76.4222 62.1657 76.2478 63.4102L73.7771 80.689H94.7344H95.1994H116.157L113.657 63.4102Z" fill="white" stroke="#6E5CFF" stroke-width="0.843399" stroke-miterlimit="10"/>
    <path d="M98.0195 53.3963V47.7236L89.997 47.6078L90.1714 53.3384C90.2005 53.8594 89.8517 54.3514 89.3284 54.4961L84.6777 55.9143C84.6777 55.9143 87.6716 59.3296 94.4442 59.3296C101.188 59.3296 103.368 55.5381 103.368 55.5381L98.9496 54.5251C98.3973 54.4383 98.0195 53.9462 98.0195 53.3963Z" fill="white" stroke="#6E5CFF" stroke-width="0.843399" stroke-miterlimit="10" stroke-linecap="round" stroke-linejoin="round"/>
    <path d="M108.28 28.0133C108.28 28.0133 108.861 36.1173 113.512 40.1692C113.512 40.1692 110.315 45.3789 101.013 44.5106L102.467 30.9076L108.28 28.0133Z" fill="#94F0DD" stroke="#6E5CFF" stroke-width="0.843399" stroke-miterlimit="10"/>
    <path d="M80.63 28.3376C80.63 28.3376 79.5841 36.395 74.7083 40.1745C74.7083 40.1745 77.6012 45.5584 86.9372 45.2232L86.2676 31.5594L80.63 28.3376Z" fill="#94F0DD" stroke="#6E5CFF" stroke-width="0.843399" stroke-miterlimit="10"/>
    <path opacity="0.2" d="M107.844 30.6185C107.844 30.6185 109.733 42.6008 106.536 44.2795L104.414 44.6557C104.414 44.6557 107.437 41.009 106.391 30.3002L107.844 30.6185Z" fill="#1BA39C"/>
    <path d="M106.536 34.4968C106.536 34.4968 107.408 34.0916 107.698 35.2493C107.989 36.407 108.018 37.8542 106.419 39.3013" fill="white"/>
    <path d="M106.536 34.4968C106.536 34.4968 107.408 34.0916 107.698 35.2493C107.989 36.407 108.018 37.8542 106.419 39.3013" stroke="#6E5CFF" stroke-width="0.843399" stroke-miterlimit="10" stroke-linecap="round" stroke-linejoin="round"/>
    <path d="M81.7614 34.435C81.7614 34.435 80.8894 34.0298 80.5987 35.1875C80.3081 36.3453 80.279 37.7924 81.8777 39.2395" fill="white"/>
    <path d="M81.7614 34.435C81.7614 34.435 80.8894 34.0298 80.5987 35.1875C80.3081 36.3453 80.279 37.7924 81.8777 39.2395" stroke="#6E5CFF" stroke-width="0.843399" stroke-miterlimit="10" stroke-linecap="round" stroke-linejoin="round"/>
    <path d="M94.095 50.3863C86.4214 50.3863 81.9741 44.1925 81.9741 36.5516V30.9657C81.9741 23.3248 86.4214 17.1311 94.095 17.1311C101.769 17.1311 106.507 23.3248 106.507 30.9657V36.5516C106.536 44.1925 101.769 50.3863 94.095 50.3863Z" fill="white" stroke="#6E5CFF" stroke-width="0.843399" stroke-miterlimit="10" stroke-linecap="round" stroke-linejoin="round"/>
    <path d="M91.1304 44.1345C91.1304 44.1345 92.3221 44.4239 94.0952 44.4239C95.8683 44.4239 97.3507 44.1345 97.3507 44.1345C97.3507 44.1345 96.7694 46.2184 94.0952 46.2184C91.421 46.1894 91.1304 44.1345 91.1304 44.1345Z" fill="#C8CEF6" fill-opacity="0.2" stroke="#6E5CFF" stroke-width="0.843399" stroke-miterlimit="10" stroke-linecap="round" stroke-linejoin="round"/>
    <path d="M80.237 29.7549C80.237 29.7549 94.6707 25.355 94.6707 21.2715L91.1589 17.1879C91.1589 17.1592 79.5604 15.6926 80.237 29.7549Z" fill="#94F0DD" stroke="#6E5CFF" stroke-width="0.843399" stroke-miterlimit="10"/>
    <path d="M89.3281 17.4204C89.5025 17.8546 90.4908 28.5055 108.541 30.6183C108.541 30.6183 110.227 22.5433 104.065 18.636C98.9784 15.4234 92.5836 16.118 89.3281 17.4204Z" fill="#94F0DD" stroke="#6E5CFF" stroke-width="0.843399" stroke-miterlimit="10"/>
    <path d="M91.4211 75.7692C91.4211 75.7692 101.885 73.4538 108.861 75.7692" stroke="#6E5CFF" stroke-width="0.843399" stroke-miterlimit="10" stroke-linecap="round" stroke-linejoin="round"/>
    <path d="M91.421 80.6892H88.8049V77.0424C88.8049 76.3478 89.3863 75.7689 90.0839 75.7689H91.421V80.6892Z" fill="white" stroke="#6E5CFF" stroke-width="0.843399" stroke-miterlimit="10" stroke-linecap="round" stroke-linejoin="round"/>
    <path d="M88.8051 76.6374C88.8051 76.6374 85.3171 75.7691 82.701 77.5056C80.085 79.2422 78.4863 80.6894 78.4863 80.6894H88.8051V76.6374Z" fill="white" stroke="#6E5CFF" stroke-width="0.843399" stroke-miterlimit="10" stroke-linecap="round" stroke-linejoin="round"/>
    <path d="M106.536 66.507L107.408 75.1898" stroke="#6E5CFF" stroke-width="0.843399" stroke-miterlimit="10" stroke-linecap="round" stroke-linejoin="round"/>
    <path d="M77.4688 80.6892H68.458C68.458 79.2421 69.6207 78.0844 71.074 78.0844H74.8527C76.277 78.0844 77.4688 79.2421 77.4688 80.6892Z" fill="white" stroke="#6E5CFF" stroke-width="0.843399" stroke-miterlimit="10" stroke-linecap="round" stroke-linejoin="round"/>
    <path opacity="0.2" d="M90.1128 49.7783C90.1128 49.7783 92.0021 50.2993 94.0368 50.2993C96.0715 50.2993 98.019 49.8073 98.019 49.8073V52.0358C98.019 52.0358 96.6529 52.6147 94.0368 52.3253C91.7115 52.0648 90.1128 50.7624 90.1128 50.7624V49.7783Z" fill="#ACB0EE"/>
    <path d="M95.49 23.9613C95.49 23.9613 102.175 28.3027 108.57 28.3027" stroke="#6E5CFF" stroke-width="0.843399" stroke-miterlimit="10" stroke-linecap="round" stroke-linejoin="round"/>
    <path d="M101.885 25.1191C101.885 25.1191 105.082 26.8557 108.57 26.5663" stroke="#6E5CFF" stroke-width="0.843399" stroke-miterlimit="10" stroke-linecap="round" stroke-linejoin="round"/>
    <path d="M105.925 55.5958C105.925 55.5958 104.675 59.2426 98.3097 61.1239C93.8625 62.4552 88.1072 60.4871 88.1072 60.4871" stroke="#6E5CFF" stroke-width="0.843399" stroke-miterlimit="10" stroke-linecap="round" stroke-linejoin="round"/>
    <path d="M109.733 38.1431C109.733 38.1431 111.041 40.8926 112.262 41.5583" stroke="#6E5CFF" stroke-width="0.843399" stroke-miterlimit="10" stroke-linecap="round" stroke-linejoin="round"/>
    <path d="M78.564 38.0813C78.564 38.0813 77.256 40.8309 76.0352 41.4965" stroke="#6E5CFF" stroke-width="0.843399" stroke-miterlimit="10" stroke-linecap="round" stroke-linejoin="round"/>
    <path d="M109.733 41.3268C109.733 41.3268 110.082 42.224 110.78 42.6581" stroke="#6E5CFF" stroke-width="0.843399" stroke-miterlimit="10" stroke-linecap="round" stroke-linejoin="round"/>
    <path d="M78.564 41.265C78.564 41.265 78.2152 42.1622 77.5176 42.5964" stroke="#6E5CFF" stroke-width="0.843399" stroke-miterlimit="10" stroke-linecap="round" stroke-linejoin="round"/>
    <path opacity="0.2" d="M91.886 20.691C92.9033 21.4145 94.4729 21.7329 95.5775 21.1251C95.9844 20.8936 96.3332 20.5752 96.7692 20.3726C97.7866 19.9674 98.9493 20.4594 99.9085 20.9514C100.868 21.4435 102.088 21.9065 103.048 21.4435C103.542 21.2119 103.92 20.7488 104.501 20.7199C105.024 20.691 105.547 21.0383 106.042 20.8936C106.507 20.7488 106.594 20.17 106.361 19.8227C106.1 19.4464 105.635 18.9833 105.199 18.8097C102.612 17.7677 100.926 16.9284 98.1063 16.4074C96.7402 16.1469 94.2695 16.2048 92.8743 16.3785C91.9151 16.4943 89.8513 16.8705 89.735 17.8546C89.6769 18.7229 91.1884 20.1989 91.886 20.691Z" fill="#1BA39C"/>
    <path opacity="0.2" d="M85.6656 73.4245C86.683 73.3377 87.7003 73.5692 88.6886 73.3087C90.607 72.8456 91.7406 70.7328 93.6591 70.1829C96.3914 69.4015 99.4143 72.1221 101.943 70.8486C102.728 70.4434 103.309 69.6909 104.065 69.1989C104.821 68.7068 105.983 68.5911 106.478 69.3436C106.71 69.6909 106.739 70.125 106.739 70.5302C106.797 72.0063 106.885 73.4824 106.943 74.9585C102.205 74.3796 97.3796 75.1032 92.6708 75.8267C91.043 76.0872 89.4153 76.3188 87.7875 76.5792C86.9737 76.695 86.1307 76.8397 85.3168 76.9844C84.096 77.216 81.6835 78.3447 81.8288 76.4635C81.9451 74.9006 84.3285 73.5692 85.6656 73.4245Z" fill="#ACB0EE"/>
    <path d="M93.3975 40.1987C93.3975 40.1987 94.4148 39.5909 95.2577 40.4013" stroke="#6E5CFF" stroke-width="0.843399" stroke-miterlimit="10" stroke-linecap="round" stroke-linejoin="round"/>
    <path d="M99.2691 36.3777C99.5902 36.3777 99.8504 36.1185 99.8504 35.7988C99.8504 35.4791 99.5902 35.22 99.2691 35.22C98.948 35.22 98.6877 35.4791 98.6877 35.7988C98.6877 36.1185 98.948 36.3777 99.2691 36.3777Z" fill="#6E5CFF"/>
    <path d="M97.2341 33.223C97.2341 33.223 98.3968 32.3547 99.8502 32.6441C101.303 32.9336 101.594 33.5124 102.176 33.223" stroke="#6E5CFF" stroke-width="0.843399" stroke-miterlimit="10" stroke-linecap="round" stroke-linejoin="round"/>
    <path d="M88.7754 36.3777C89.0965 36.3777 89.3568 36.1185 89.3568 35.7988C89.3568 35.4791 89.0965 35.22 88.7754 35.22C88.4544 35.22 88.1941 35.4791 88.1941 35.7988C88.1941 36.1185 88.4544 36.3777 88.7754 36.3777Z" fill="#6E5CFF"/>
    <path d="M90.8393 33.223C90.8393 33.223 89.6766 32.3547 88.2233 32.6441C86.77 32.9336 86.4793 33.5124 85.8979 33.223" stroke="#6E5CFF" stroke-width="0.843399" stroke-miterlimit="10" stroke-linecap="round" stroke-linejoin="round"/>
    <path d="M77.7237 60.4595C77.5202 59.0124 77.0842 57.5942 76.4157 56.2918C75.7181 54.9894 74.7007 53.658 73.2765 53.1949C70.2244 52.2398 59.8475 50.0112 59.8475 50.0112H56.563H55.2549H51.9704C51.9704 50.0112 41.5935 52.2398 38.5414 53.1949C37.1172 53.6291 36.0998 54.9894 35.4022 56.2918C34.9953 57.0732 34.6755 57.8836 34.443 58.7519L31.1875 69.316C31.1875 69.316 31.6235 69.8949 32.699 70.4448L31.2456 80.6037H55.6619H56.1851H80.6013L77.7237 60.4595Z" fill="#FEEB8E"/>
    <path fill-rule="evenodd" clip-rule="evenodd" d="M51.9425 49.7493H59.8757L59.9031 49.7552L59.8477 50.0112C59.9031 49.7552 59.903 49.7551 59.9031 49.7552L60.0206 49.7805C60.0974 49.797 60.2105 49.8215 60.3554 49.8529C60.6453 49.9157 61.0628 50.0066 61.5733 50.1185C62.5943 50.3425 63.9874 50.6511 65.4761 50.9895C68.4484 51.6653 71.8172 52.4636 73.3554 52.945L73.3582 52.9459C74.8839 53.4419 75.943 54.8525 76.6479 56.1685L76.65 56.1725C77.3326 57.5023 77.777 58.9487 77.9843 60.4232L80.9045 80.8656H30.9427L32.4127 70.5899C31.9411 70.3326 31.5984 70.0743 31.3663 69.8707C31.2371 69.7574 31.1422 69.6612 31.0785 69.5917C31.0466 69.557 31.0225 69.5289 31.0058 69.5088C30.9974 69.4987 30.9909 69.4906 30.9861 69.4846L30.9804 69.4772L30.9785 69.4748L30.9778 69.4739L30.9775 69.4735C30.9775 69.4734 30.9773 69.4732 31.1876 69.316L30.9775 69.4735L30.897 69.3665L34.1903 58.6797C34.4278 57.7941 34.7542 56.9675 35.1689 56.1712L35.1703 56.1685C35.8729 54.8567 36.9329 53.4118 38.4637 52.9447C40.0024 52.4633 43.3704 51.6651 46.342 50.9895C47.8307 50.6511 49.2239 50.3425 50.2449 50.1185C50.7554 50.0066 51.1729 49.9157 51.4627 49.8529C51.6077 49.8215 51.7207 49.797 51.7976 49.7805L51.9146 49.7553C51.9147 49.7552 51.9151 49.7552 51.9705 50.0112L51.9151 49.7552L51.9425 49.7493ZM51.9986 50.2731L51.9089 50.2925C51.8322 50.309 51.7194 50.3334 51.5746 50.3648C51.2851 50.4275 50.868 50.5183 50.358 50.6301C49.3379 50.8539 47.9461 51.1622 46.4591 51.5002C43.4798 52.1776 40.1342 52.9711 38.6204 53.4448L38.6185 53.4454C37.3017 53.8468 36.3275 55.1214 35.6351 56.4137C35.237 57.1784 34.9245 57.9706 34.6972 58.8194L34.696 58.8241L31.4817 69.2545C31.5335 69.3099 31.6101 69.3866 31.7138 69.4775C31.9421 69.6777 32.3022 69.9473 32.8192 70.2117L32.9859 70.2969L31.5489 80.3417H80.2985L77.4635 60.4964L77.4634 60.4958C77.2639 59.0769 76.8367 57.6876 76.1828 56.4132C75.4928 55.1255 74.518 53.8747 73.1964 53.4443C71.6819 52.9706 68.3374 52.1774 65.3591 51.5002C63.8721 51.1622 62.4803 50.8539 61.4602 50.6301C60.9502 50.5183 60.5331 50.4275 60.2436 50.3648C60.0988 50.3334 59.986 50.309 59.9093 50.2925L59.8196 50.2731H51.9986ZM31.3975 69.1581C31.3974 69.1579 31.3973 69.1579 31.3975 69.1581V69.1581Z" fill="#6E5CFF"/>
    <path d="M81.0667 80.6037H58.0166C58.0166 79.475 58.9177 78.5778 60.0513 78.5778H79.032C80.1656 78.5778 81.0667 79.5039 81.0667 80.6037Z" fill="#C8CEF6" stroke="#6E5CFF" stroke-width="0.843399" stroke-miterlimit="10"/>
    <path d="M98.6229 80.6039H62.5798V60.315C62.5798 58.5785 64.0041 57.1603 65.7481 57.1603H95.4255C97.1695 57.1603 98.5938 58.5785 98.5938 60.315V80.6039H98.6229Z" fill="#C8CEF6"/>
    <path fill-rule="evenodd" clip-rule="evenodd" d="M65.7482 57.4222C64.1493 57.4222 62.8428 58.7232 62.8428 60.315V80.3419H98.3309V60.315C98.3309 58.7232 97.0244 57.4222 95.4255 57.4222H65.7482ZM98.6229 80.6038V80.8658H62.3169V60.315C62.3169 58.4337 63.859 56.8983 65.7482 56.8983H95.4255C97.3147 56.8983 98.8568 58.4337 98.8568 60.315V80.6038H98.6229Z" fill="#6E5CFF"/>
    <path d="M61.3009 42.168V50.7061C61.3009 50.7061 59.586 52.8189 56.4177 52.8189C52.5227 52.8189 51.2438 50.7061 51.2438 50.7061L51.2147 50.0115L50.9822 42.0233L61.3009 42.168Z" fill="white"/>
    <path fill-rule="evenodd" clip-rule="evenodd" d="M50.7949 41.8395C50.8452 41.7886 50.9142 41.7604 50.9859 41.7614L61.3047 41.9061C61.4485 41.9081 61.564 42.0248 61.564 42.168V50.7061C61.564 50.766 61.5433 50.8242 61.5055 50.8708L61.301 50.7061C61.5055 50.8708 61.5056 50.8707 61.5055 50.8708L61.5051 50.8712L61.5046 50.8719L61.503 50.8737L61.4981 50.8797C61.4939 50.8847 61.488 50.8917 61.4805 50.9004C61.4654 50.9179 61.4436 50.9427 61.4151 50.9737C61.3581 51.0357 61.2743 51.1228 61.1642 51.2265C60.9441 51.4338 60.618 51.7085 60.1897 51.9828C59.3326 52.5317 58.0631 53.0808 56.4177 53.0808C54.4194 53.0808 53.0756 52.5379 52.2257 51.9814C51.802 51.7039 51.5039 51.4249 51.3099 51.2124C51.213 51.1062 51.142 51.0165 51.0944 50.9519C51.0706 50.9196 51.0526 50.8935 51.0401 50.8747C51.0338 50.8653 51.0289 50.8578 51.0254 50.8522L51.021 50.8452L51.0196 50.8429L51.019 50.842C51.0189 50.8419 51.0186 50.8413 51.2438 50.7061L51.0186 50.8413C50.9958 50.8037 50.9829 50.7609 50.9811 50.717L50.9519 50.0191L50.7193 42.0309C50.7173 41.9595 50.7446 41.8903 50.7949 41.8395ZM51.5035 50.6214C51.508 50.6277 51.5129 50.6345 51.5184 50.6419C51.5559 50.6928 51.6153 50.7682 51.6991 50.86C51.8667 51.0437 52.1317 51.2929 52.5146 51.5436C53.2779 52.0435 54.5211 52.557 56.4177 52.557C57.9406 52.557 59.1128 52.0497 59.9052 51.5422C60.3017 51.2883 60.6023 51.0348 60.8028 50.8459C60.903 50.7516 60.9779 50.6736 61.0271 50.62C61.0309 50.6159 61.0345 50.6119 61.038 50.6081V42.4263L51.253 42.289L51.4776 50.0022L51.5035 50.6214Z" fill="#6E5CFF"/>
    <path opacity="0.2" d="M51.1274 44.8016C51.1274 44.8016 53.5691 45.4963 56.1851 45.4963C58.8011 45.4963 61.3299 44.8595 61.3299 44.8595V47.7248C61.3299 47.7248 59.5569 48.4773 56.1851 48.1011C53.2203 47.7827 51.1274 46.0751 51.1274 46.0751V44.8016Z" fill="#ACB0EE"/>
    <path d="M55.9527 45.3806C46.5641 45.3806 43.8318 39.7078 43.8318 32.7037V27.5808C43.8318 20.5767 48.279 14.9039 55.9527 14.9039C63.6264 14.9039 68.3643 20.5767 68.3643 27.5808V32.7037C68.3934 39.7078 66.6493 45.3806 55.9527 45.3806Z" fill="white"/>
    <path fill-rule="evenodd" clip-rule="evenodd" d="M47.2099 18.791C45.1889 21.0292 44.0945 24.1328 44.0945 27.5808V32.7037C44.0945 36.1791 44.7737 39.2777 46.576 41.5042C48.3694 43.7198 51.3136 45.1186 55.9525 45.1186C61.2571 45.1186 64.2715 43.7132 65.9719 41.5091C67.6844 39.2892 68.1156 36.1978 68.1011 32.7047L68.1011 32.7037V27.5808C68.1011 24.1372 66.9368 21.0341 64.8434 18.7943C62.7523 16.5567 59.7205 15.1658 55.9525 15.1658C52.1853 15.1658 49.2279 16.5561 47.2099 18.791ZM46.8189 18.4406C48.943 16.0881 52.0461 14.642 55.9525 14.642C59.8582 14.642 63.0322 16.0874 65.2284 18.4373C67.4224 20.7849 68.6271 24.0202 68.6271 27.5808L68.6271 32.7026C68.6271 32.7027 68.6271 32.7029 68.6271 32.703C68.6416 36.2139 68.2153 39.4608 66.389 41.8282C64.5504 44.2115 61.3445 45.6425 55.9525 45.6425C51.2027 45.6425 48.0865 44.205 46.1666 41.8331C44.2556 39.4722 43.5686 36.2323 43.5686 32.7037V27.5808C43.5686 24.0246 44.6978 20.7898 46.8189 18.4406Z" fill="#6E5CFF"/>
    <path d="M53.5984 40.1997C53.5984 40.1997 55.1389 40.7786 57.2027 40.3734C59.2664 39.9682 60.807 38.7526 60.807 38.7526C60.807 38.7526 60.7198 41.8205 57.6096 42.4283C54.5285 43.065 53.5984 40.1997 53.5984 40.1997Z" fill="#C8CEF6" fill-opacity="0.2" stroke="#6E5CFF" stroke-width="0.843399" stroke-miterlimit="10" stroke-linecap="round" stroke-linejoin="round"/>
    <path d="M60.894 32.9928C61.3916 32.9928 61.7951 32.5911 61.7951 32.0956C61.7951 31.6001 61.3916 31.1984 60.894 31.1984C60.3963 31.1984 59.9929 31.6001 59.9929 32.0956C59.9929 32.5911 60.3963 32.9928 60.894 32.9928Z" fill="#6E5CFF"/>
    <path opacity="0.2" d="M61.7078 73.6573V77.2172C61.7078 79.3879 62.667 81.1535 63.8297 81.1535H96.53C97.6926 81.1535 98.6518 79.3879 98.6518 77.2172V66.4216C98.6228 66.4216 82.0256 77.0146 61.7078 73.6573Z" fill="#ACB0EE"/>
    <path d="M60.1093 21.1554C60.1093 21.1554 63.6555 26.6256 68.3353 26.423V30.938L69.8468 28.2464C69.8468 28.2464 70.4281 16.3799 61.708 14.9327C61.708 14.9038 59.6733 17.5376 60.1093 21.1554Z" fill="white" stroke="#6E5CFF" stroke-width="0.843399" stroke-miterlimit="10" stroke-linecap="round" stroke-linejoin="round"/>
    <path d="M61.708 14.9038V20.4029C61.708 20.4029 58.9466 24.4259 44.1806 24.2812C44.1806 24.2812 43.6865 30.7354 43.8318 31.6327C43.9772 32.5299 42.2331 28.7673 42.2331 28.7673C42.2331 28.7673 40.1985 20.6634 45.7212 16.322C48.8023 13.9197 56.7666 10.8518 61.708 14.9038Z" fill="white" stroke="#6E5CFF" stroke-width="0.843399" stroke-miterlimit="10" stroke-linecap="round" stroke-linejoin="round"/>
    <path d="M42.8145 23.8762C42.8145 23.8762 44.4422 24.4261 45.5177 24.2814L42.8145 23.8762Z" fill="white"/>
    <path d="M42.8145 23.8762C42.8145 23.8762 44.4422 24.4261 45.5177 24.2814" stroke="#6E5CFF" stroke-width="0.843399" stroke-miterlimit="10" stroke-linecap="round" stroke-linejoin="round"/>
    <path d="M47.7556 30.8222C47.7556 30.8222 49.4996 29.6645 52.9877 30.2433V28.7962C52.9877 28.7962 49.4996 28.5068 47.7556 29.375V30.8222Z" fill="#C8CEF6" stroke="#6E5CFF" stroke-width="0.843399" stroke-miterlimit="10" stroke-linecap="round" stroke-linejoin="round"/>
    <path d="M63.7426 30.8222C63.7426 30.8222 61.9985 29.6645 58.5105 30.2433V28.7962C58.5105 28.7962 61.9985 28.5068 63.7426 29.375V30.8222Z" fill="#C8CEF6" stroke="#6E5CFF" stroke-width="0.843399" stroke-miterlimit="10" stroke-linecap="round" stroke-linejoin="round"/>
    <path d="M50.7207 32.9928C51.2183 32.9928 51.6217 32.5911 51.6217 32.0956C51.6217 31.6001 51.2183 31.1984 50.7207 31.1984C50.223 31.1984 49.8196 31.6001 49.8196 32.0956C49.8196 32.5911 50.223 32.9928 50.7207 32.9928Z" fill="#6E5CFF"/>
    <path d="M42.8145 70.7635L41.274 80.6041H31.2168L32.7573 70.4741C32.7573 70.4741 37.0011 72.7895 42.8145 70.7635Z" fill="white"/>
    <path fill-rule="evenodd" clip-rule="evenodd" d="M32.7574 70.2122V70.4741C32.8837 70.2444 32.8836 70.2443 32.8836 70.2443L32.8851 70.2451L32.8926 70.2491C32.8996 70.2528 32.9107 70.2585 32.9257 70.2661C32.9557 70.2813 33.0015 70.304 33.0625 70.3324C33.1845 70.3892 33.367 70.4692 33.6049 70.5594C34.0808 70.74 34.7774 70.9614 35.6532 71.1209C37.4041 71.4398 39.8712 71.5118 42.7277 70.5163C42.8149 70.4859 42.9118 70.5033 42.9828 70.5622C43.0539 70.6212 43.0886 70.7129 43.0744 70.8039L41.5338 80.6444C41.5139 80.7719 41.4036 80.866 41.274 80.866H31.2168C31.1402 80.866 31.0674 80.8327 31.0174 80.7748C30.9675 80.717 30.9453 80.6403 30.9568 80.5648L32.4974 70.4349C32.5168 70.3068 32.6274 70.2122 32.7574 70.2122ZM32.9641 70.8634L31.5226 80.3421H41.0489L42.4881 71.1485C39.7059 72.0339 37.2975 71.9529 35.5586 71.6362C34.6469 71.4701 33.9192 71.2393 33.4177 71.049C33.2364 70.9802 33.0845 70.9167 32.9641 70.8634Z" fill="#6E5CFF"/>
    <path d="M43.6864 29.3754C43.6864 29.3754 41.3611 30.2436 41.3611 31.9802C41.3611 33.7168 43.9771 36.0322 43.9771 36.0322L43.6864 29.3754Z" fill="white" stroke="#6E5CFF" stroke-width="0.843399" stroke-miterlimit="10" stroke-linecap="round" stroke-linejoin="round"/>
    <path d="M68.3933 29.3754C68.3933 29.3754 71.0093 30.2436 71.0093 31.9802C71.0093 33.7168 68.3933 36.0322 68.3933 36.0322V29.3754Z" fill="white" stroke="#6E5CFF" stroke-width="0.843399" stroke-miterlimit="10" stroke-linecap="round" stroke-linejoin="round"/>
    <path d="M61.1265 37.1897C61.1265 37.1897 62.2891 37.4791 62.2891 38.6368" stroke="#6E5CFF" stroke-width="0.843399" stroke-miterlimit="10" stroke-linecap="round" stroke-linejoin="round"/>
    <path d="M58.0164 36.3793C58.0164 36.3793 56.5049 37.5659 55.0225 36.4372" stroke="#6E5CFF" stroke-width="0.843399" stroke-miterlimit="10" stroke-linecap="round" stroke-linejoin="round"/>
    <path d="M66.6494 58.8966H70.7188" stroke="white" stroke-width="0.843399" stroke-miterlimit="10" stroke-linecap="round" stroke-linejoin="round"/>
    <path fill-rule="evenodd" clip-rule="evenodd" d="M44.0448 66.1686C44.1851 66.2059 44.2685 66.3494 44.2311 66.4892L43.0684 70.8306C43.031 70.9704 42.8869 71.0534 42.7465 71.0162C42.6062 70.9789 42.5228 70.8353 42.5602 70.6956L43.7229 66.3542C43.7603 66.2144 43.9044 66.1313 44.0448 66.1686Z" fill="#6E5CFF"/>
    <path d="M61.4173 18.9559C61.4173 18.9559 49.2092 24.9181 42.8145 20.2005L61.4173 18.9559Z" fill="white"/>
    <path d="M61.4173 18.9559C61.4173 18.9559 49.2092 24.9181 42.8145 20.2005" stroke="#6E5CFF" stroke-width="0.843399" stroke-miterlimit="10" stroke-linecap="round" stroke-linejoin="round"/>
    <path d="M61.4172 17.1327C61.4172 17.1327 48.9184 22.7186 44.5583 17.7984L61.4172 17.1327Z" fill="white"/>
    <path d="M61.4172 17.1327C61.4172 17.1327 48.9184 22.7186 44.5583 17.7984" stroke="#6E5CFF" stroke-width="0.843399" stroke-miterlimit="10" stroke-linecap="round" stroke-linejoin="round"/>
    <path d="M61.708 14.9036C61.708 14.9036 53.3657 16.7849 49.8196 14.1222L61.708 14.9036Z" fill="white"/>
    <path d="M61.708 14.9036C61.708 14.9036 53.3657 16.7849 49.8196 14.1222" stroke="#6E5CFF" stroke-width="0.843399" stroke-miterlimit="10" stroke-linecap="round" stroke-linejoin="round"/>
    <path d="M61.7078 20.4032C61.7078 20.4032 68.3932 22.1398 68.3932 26.4812L61.7078 20.4032Z" fill="white"/>
    <path d="M61.7078 20.4032C61.7078 20.4032 68.3932 22.1398 68.3932 26.4812" stroke="#6E5CFF" stroke-width="0.843399" stroke-miterlimit="10" stroke-linecap="round" stroke-linejoin="round"/>
    <path d="M61.7078 17.7979C61.7078 17.7979 67.8118 17.7979 69.5558 24.31L61.7078 17.7979Z" fill="white"/>
    <path d="M61.7078 17.7979C61.7078 17.7979 67.8118 17.7979 69.5558 24.31" stroke="#6E5CFF" stroke-width="0.843399" stroke-miterlimit="10" stroke-linecap="round" stroke-linejoin="round"/>
    <path opacity="0.2" d="M54.0053 21.1553C52.8136 21.5026 51.6218 21.8499 50.401 21.9946C47.8431 22.284 45.1689 21.5894 43.0761 20.0844C42.2913 20.4028 42.2913 21.5894 42.8726 22.1972C43.454 22.805 44.3551 22.9497 45.198 23.0076C50.3719 23.4707 56.6795 22.5445 60.8651 19.2451C59.964 19.0714 58.6269 19.766 57.7549 20.0265C56.476 20.4028 55.2552 20.779 54.0053 21.1553Z" fill="#6D47D9"/>
    <path opacity="0.2" d="M54.7899 15.3381C52.9296 15.3091 50.9822 15.1355 49.4707 14.0356C48.6277 14.4987 47.8139 14.9908 47.0291 15.5117C48.308 16.6115 50.1102 16.8141 51.796 16.8141C54.4993 16.8141 57.9873 16.6115 60.4289 15.3381C59.8185 14.9329 58.6268 15.2512 57.9001 15.2802C56.8828 15.3381 55.8363 15.367 54.7899 15.3381Z" fill="#6D47D9"/>
    <path d="M23.2813 52.0374C22.4384 52.0374 21.6536 51.9506 20.8978 51.8058C15.317 50.6771 14.3287 49.3457 12.1487 39.4184V34.3245C12.1487 27.3493 16.2181 21.7054 23.2813 21.7054C30.3155 21.7054 34.6756 27.3493 34.6756 34.3245V39.4184C32.0596 49.3457 31.3619 50.5902 25.8392 51.7769C25.0253 51.9506 24.1824 52.0374 23.2813 52.0374Z" fill="white" stroke="#6E5CFF" stroke-width="0.843399" stroke-miterlimit="10" stroke-linecap="round" stroke-linejoin="round"/>
    <path d="M21.8862 34.5848H14.9102V38.4632H21.8862V34.5848Z" fill="white" stroke="#6E5CFF" stroke-width="0.843399" stroke-miterlimit="10" stroke-linecap="round" stroke-linejoin="round"/>
    <path d="M31.7689 34.5848H24.5022V38.4632H31.7689V34.5848Z" fill="white" stroke="#6E5CFF" stroke-width="0.843399" stroke-miterlimit="10" stroke-linecap="round" stroke-linejoin="round"/>
    <path d="M21.886 36.524H24.502" stroke="#6E5CFF" stroke-width="0.843399" stroke-miterlimit="10" stroke-linecap="round" stroke-linejoin="round"/>
    <path d="M31.769 36.6107H34.3851" stroke="#6E5CFF" stroke-width="0.843399" stroke-miterlimit="10" stroke-linecap="round" stroke-linejoin="round"/>
    <path d="M12.2939 36.6107H14.91" stroke="#6E5CFF" stroke-width="0.843399" stroke-miterlimit="10" stroke-linecap="round" stroke-linejoin="round"/>
    <path d="M18.5436 37.1897C18.7846 37.1897 18.9799 36.9953 18.9799 36.7556C18.9799 36.5158 18.7846 36.3214 18.5436 36.3214C18.3027 36.3214 18.1074 36.5158 18.1074 36.7556C18.1074 36.9953 18.3027 37.1897 18.5436 37.1897Z" fill="#6E5CFF"/>
    <path d="M28.1357 37.1897C28.3766 37.1897 28.5719 36.9953 28.5719 36.7556C28.5719 36.5158 28.3766 36.3214 28.1357 36.3214C27.8948 36.3214 27.6995 36.5158 27.6995 36.7556C27.6995 36.9953 27.8948 37.1897 28.1357 37.1897Z" fill="#6E5CFF"/>
    <path d="M20.1421 46.4517C20.1421 46.4517 21.3048 47.0305 23.3395 47.0305C25.3741 47.0305 26.8275 46.4517 26.8275 46.4517" fill="white"/>
    <path d="M20.1421 46.4517C20.1421 46.4517 21.3048 47.0305 23.3395 47.0305C25.3741 47.0305 26.8275 46.4517 26.8275 46.4517" stroke="#6E5CFF" stroke-width="0.843399" stroke-miterlimit="10" stroke-linecap="round" stroke-linejoin="round"/>
    <path d="M18.5435 22.3131L21.0141 28.2174C21.0141 28.2174 32.0596 30.2434 34.6756 26.4808C34.6756 26.4808 29.1529 16.1483 18.5435 22.3131Z" fill="#C8CEF6" stroke="#6E5CFF" stroke-width="0.843399" stroke-miterlimit="10"/>
    <path d="M12.0036 34.5849L13.4569 33.7166C13.4569 33.7166 15.2009 27.0598 20.1423 26.4809L18.689 22.429C18.689 22.429 9.96888 23.8761 12.0036 34.5849Z" fill="#C8CEF6" stroke="#6E5CFF" stroke-width="0.843399" stroke-miterlimit="10"/>
    <path d="M30.6062 28.5068C30.6062 28.5068 32.9316 30.8222 33.2222 35.1636H34.3849C34.3849 35.1636 36.0417 32.0089 33.7745 27.3781C33.7454 27.3781 32.3502 28.2174 30.6062 28.5068Z" fill="#C8CEF6" stroke="#6E5CFF" stroke-width="0.843399" stroke-miterlimit="10"/>
    <path opacity="0.1" d="M12.5847 41.6178C12.5847 41.6178 24.1824 46.6249 33.7745 41.0389C33.7745 41.0389 32.0305 49.2587 30.5772 50.0112C29.1238 50.7926 24.1824 52.5002 21.8571 52.0661C19.5317 51.632 16.3344 50.5611 15.4623 49.2297C14.6194 47.8984 13.1951 44.049 12.5847 41.6178Z" fill="#6D47D9"/>
    <path d="M24.2115 42.7756C24.2115 42.7756 23.3395 43.4702 22.4675 42.8046" stroke="#6E5CFF" stroke-width="0.843399" stroke-miterlimit="10" stroke-linecap="round" stroke-linejoin="round"/>
    <path d="M22.7583 58.6071L19.561 62.0803L14.7358 55.163L16.9449 52.5292L22.7583 58.6071Z" fill="#9588FF" stroke="#6E5CFF" stroke-width="0.843399" stroke-miterlimit="10" stroke-linecap="round" stroke-linejoin="round"/>
    <path d="M23.165 58.6071L26.3624 62.0803L31.1875 55.163L28.9784 52.5292L23.165 58.6071Z" fill="#9588FF" stroke="#6E5CFF" stroke-width="0.843399" stroke-miterlimit="10" stroke-linecap="round" stroke-linejoin="round"/>
    <path d="M9.96859 69.316L8.80591 80.6037" stroke="#6E5CFF" stroke-width="0.843399" stroke-miterlimit="10"/>
    <path d="M126.011 60.0818C126.011 60.0818 121.767 48.5916 119.703 48.5916C116.68 48.5916 115.169 60.8343 117.698 64.1048C118.25 64.8284 118.715 65.6099 120.721 65.3494" fill="#C8CEF6"/>
    <path d="M126.011 60.0818C126.011 60.0818 121.767 48.5916 119.703 48.5916C116.68 48.5916 115.169 60.8343 117.698 64.1048C118.25 64.8284 118.715 65.6099 120.721 65.3494" stroke="#6E5CFF" stroke-width="0.843399" stroke-miterlimit="10" stroke-linecap="round" stroke-linejoin="round"/>
    <path d="M120.75 56.1743C119.238 57.0137 120.11 63.41 120.11 63.41L120.198 63.381C120.924 62.0497 122.465 61.0077 123.918 60.6025C123.627 59.9079 123.279 59.2422 122.959 58.5476C122.261 57.7372 121.535 56.9558 120.75 56.1743Z" fill="white"/>
    <path d="M123.976 60.8342C123.976 60.8342 122.959 56.8112 119.936 55.7982" stroke="#6E5CFF" stroke-width="0.843399" stroke-miterlimit="10" stroke-linecap="round" stroke-linejoin="round"/>
    <path d="M121.185 62.3393C121.185 62.3393 120.691 59.3292 122.959 58.4609" stroke="#157A6B" stroke-width="0.843399" stroke-miterlimit="10" stroke-linecap="round" stroke-linejoin="round"/>
    <path d="M143.451 80.6888C143.451 80.6888 143.16 71.1377 138.51 69.4011H120.779C120.779 69.4011 118.454 76.9262 118.163 80.6888H143.451Z" fill="#C8CEF6" stroke="#6E5CFF" stroke-width="0.843399" stroke-miterlimit="10" stroke-linecap="round" stroke-linejoin="round"/>
    <path d="M139.585 73.7428C141.794 71.9484 142.579 68.0411 142.579 65.3494C142.579 59.9082 137.115 56.3772 130.371 56.3772C123.627 56.3772 118.163 59.9082 118.163 65.3494C118.163 68.0701 118.948 71.9773 121.157 73.7428" fill="#C8CEF6"/>
    <path d="M139.585 73.7428C141.794 71.9484 142.579 68.0411 142.579 65.3494C142.579 59.9082 137.115 56.3772 130.371 56.3772C123.627 56.3772 118.163 59.9082 118.163 65.3494C118.163 68.0701 118.948 71.9773 121.157 73.7428" stroke="#6E5CFF" stroke-width="0.843399" stroke-miterlimit="10" stroke-linecap="round" stroke-linejoin="round"/>
    <path d="M128.627 60.7188C128.627 60.7188 129.789 58.6928 130.371 60.1399C130.952 61.587 130.08 67.9544 133.277 68.8227C136.475 69.691 141.794 68.5622 140.748 71.1381C139.672 73.743 137.928 73.743 137.928 73.743C137.928 73.743 125.139 73.743 123.104 73.743C121.069 73.743 118.744 69.4016 120.197 69.4016C121.651 69.4016 124.848 69.691 125.72 67.9544C126.592 66.2179 128.627 60.7188 128.627 60.7188Z" fill="white"/>
    <path d="M127.959 69.3248C128.521 68.3558 127.905 66.9547 126.585 66.1955C125.264 65.4362 123.738 65.6062 123.176 66.5752C122.614 67.5442 123.229 68.9452 124.55 69.7045C125.871 70.4638 127.397 70.2937 127.959 69.3248Z" fill="#6E5CFF"/>
    <path d="M134.005 63.3234C134.406 63.3234 134.731 62.9994 134.731 62.5998C134.731 62.2002 134.406 61.8762 134.005 61.8762C133.603 61.8762 133.278 62.2002 133.278 62.5998C133.278 62.9994 133.603 63.3234 134.005 63.3234Z" fill="#6E5CFF"/>
    <path d="M124.993 63.0342C125.395 63.0342 125.72 62.7102 125.72 62.3106C125.72 61.911 125.395 61.587 124.993 61.587C124.592 61.587 124.267 61.911 124.267 62.3106C124.267 62.7102 124.592 63.0342 124.993 63.0342Z" fill="#6E5CFF"/>
    <path d="M135.864 60.0818C135.864 60.0818 140.108 48.5916 142.172 48.5916C145.195 48.5916 146.706 60.8343 144.177 64.1048C143.625 64.8284 143.16 65.6099 141.154 65.3494" fill="#C8CEF6"/>
    <path d="M135.864 60.0818C135.864 60.0818 140.108 48.5916 142.172 48.5916C145.195 48.5916 146.706 60.8343 144.177 64.1048C143.625 64.8284 143.16 65.6099 141.154 65.3494" stroke="#6E5CFF" stroke-width="0.843399" stroke-miterlimit="10" stroke-linecap="round" stroke-linejoin="round"/>
    <path d="M141.038 56.1743C142.55 57.0137 141.678 63.41 141.678 63.41L141.59 63.381C140.864 62.0497 139.323 61.0077 137.87 60.6025C138.161 59.9079 138.509 59.2422 138.829 58.5476C139.498 57.7372 140.253 56.9558 141.038 56.1743Z" fill="white"/>
    <path d="M141.939 55.7982C138.916 56.8112 137.899 60.8342 137.899 60.8342" stroke="#6E5CFF" stroke-width="0.843399" stroke-miterlimit="10" stroke-linecap="round" stroke-linejoin="round"/>
    <path d="M140.69 62.3393C140.69 62.3393 141.184 59.3292 138.917 58.4609" stroke="#6E5CFF" stroke-width="0.843399" stroke-miterlimit="10" stroke-linecap="round" stroke-linejoin="round"/>
    <path d="M139.963 80.3995C139.963 80.3995 137.347 78.0841 137.928 73.7427H123.104C123.104 73.7427 123.976 78.9524 121.941 80.3995H139.963Z" fill="white"/>
    <path d="M138.8 80.6891C138.8 80.6891 138.626 78.1132 141.94 77.7659C145.253 77.3896 146.358 80.6891 146.358 80.6891H138.8Z" fill="#C8CEF6" stroke="#6E5CFF" stroke-width="0.843399" stroke-miterlimit="10" stroke-linecap="round" stroke-linejoin="round"/>
    <path d="M121.941 80.6891C121.941 80.6891 122.116 78.1132 118.802 77.7659C115.489 77.3896 114.384 80.6891 114.384 80.6891H121.941Z" fill="#C8CEF6" stroke="#6E5CFF" stroke-width="0.843399" stroke-miterlimit="10" stroke-linecap="round" stroke-linejoin="round"/>
    <path d="M133.568 69.1121C133.568 69.1121 136.475 71.4275 134.731 72.5852C132.987 73.7429 130.807 70.154 130.807 70.154" fill="#FB9EA7"/>
    <path d="M133.568 69.1121C133.568 69.1121 136.475 71.4275 134.731 72.5852C132.987 73.7429 130.807 70.154 130.807 70.154" stroke="#6E5CFF" stroke-width="0.843399" stroke-miterlimit="10" stroke-linecap="round" stroke-linejoin="round"/>
    <path d="M129.499 70.5589C129.499 70.5589 133.277 69.6907 134.731 67.6647L129.499 70.5589Z" fill="#C8CEF6"/>
    <path d="M129.499 70.5589C129.499 70.5589 133.277 69.6907 134.731 67.6647" stroke="#6E5CFF" stroke-width="0.843399" stroke-miterlimit="10" stroke-linecap="round" stroke-linejoin="round"/>
    <path d="M133.859 70.8486C133.859 70.8486 133.568 69.8646 132.115 69.6331L133.859 70.8486Z" fill="#C8CEF6"/>
    <path d="M133.859 70.8486C133.859 70.8486 133.568 69.8646 132.115 69.6331" stroke="#6E5CFF" stroke-width="0.843399" stroke-miterlimit="10" stroke-linecap="round" stroke-linejoin="round"/>
  </g>
  <defs>
    <clipPath id="teams-illustration-simple_clip0">
      <rect width="146" height="80" fill="white"/>
    </clipPath>
  </defs>
</svg>
